<svg width="560" height="580" viewBox="0 0 560 580" fill="none" xmlns="http://www.w3.org/2000/svg">
<path fill-rule="evenodd" clip-rule="evenodd" d="M119.947 60.1737C183.504 6.91151 259.742 -9.84184 340.856 5.36919C371.61 11.1363 428.423 33.5765 473.032 67.5223C517.567 101.411 550.576 147.308 532.063 199.891C531.789 200.672 530.936 201.081 530.159 200.804C529.382 200.528 528.976 199.671 529.25 198.89C547.062 148.296 515.555 103.643 471.231 69.9144C426.983 36.2428 370.597 13.998 340.309 8.31833C259.98 -6.74548 184.665 9.84388 121.857 62.4781C83.3968 94.709 47.3277 138.94 25.2273 187.91C3.12878 236.875 -4.96085 290.472 12.3296 341.554C41.9415 429.039 99.265 509.668 183.527 540.29C222.911 554.602 277.177 557.395 328.983 549.209C380.81 541.02 429.862 521.893 458.981 492.666C529.848 421.535 556.198 322.131 557.009 219.427C557.401 169.792 541.017 126.512 511.201 87.1524C475.549 40.0872 438.652 25.615 385.755 6.45611C384.98 6.17532 384.578 5.31588 384.857 4.53649C385.137 3.7571 385.991 3.3529 386.767 3.63368C439.723 22.8142 477.358 37.5239 513.575 85.3348C543.737 125.151 560.391 169.066 559.993 219.451C559.178 322.598 532.714 422.897 461.09 494.789C431.334 524.655 381.565 543.937 329.446 552.173C277.306 560.411 222.502 557.644 182.512 543.111C97.0676 512.06 39.2726 430.466 9.50466 342.521C-8.09783 290.516 0.196766 236.112 22.5099 186.67C44.8211 137.233 81.1909 92.6521 119.947 60.1737Z" fill="black"/>
<path fill-rule="evenodd" clip-rule="evenodd" d="M215.969 542.908C226.441 582.179 307.035 576.192 370.705 573.938C428.916 571.878 499.152 568.864 527.361 531.887C555.989 494.363 514.286 462.818 471.281 442.106C434.009 424.154 382.836 420.139 334.756 439.122C272.836 463.57 205.125 502.24 215.969 542.908Z" fill="white"/>
<path fill-rule="evenodd" clip-rule="evenodd" d="M334.211 437.726C382.677 418.59 434.281 422.622 471.925 440.753C493.468 451.129 514.9 464.31 527.342 479.748C533.58 487.488 537.63 495.883 538.212 504.843C538.796 513.83 535.879 523.188 528.545 532.8C514.099 551.736 489.029 561.826 460.573 567.478C432.074 573.138 399.843 574.408 370.758 575.437C366.47 575.589 362.101 575.758 357.678 575.929C329.337 577.025 298.792 578.207 273.23 575.487C258.452 573.914 245.207 571.027 234.955 565.989C224.673 560.936 217.29 553.655 214.528 543.297C211.687 532.644 214.024 522.184 219.967 512.202C225.893 502.248 235.439 492.701 247.173 483.738C270.646 465.809 303.201 449.969 334.211 437.726ZM470.636 443.458C433.736 425.686 382.994 421.688 335.302 440.518C304.391 452.723 272.13 468.442 248.978 486.127C237.401 494.97 228.182 504.245 222.527 513.743C216.889 523.214 214.828 532.839 217.41 542.52C219.884 551.797 226.501 558.495 236.266 563.294C246.061 568.107 258.907 570.946 273.545 572.503C298.873 575.199 329.169 574.028 357.535 572.932C361.963 572.761 366.345 572.592 370.653 572.439C399.778 571.408 431.77 570.141 459.994 564.535C488.261 558.92 512.414 549.015 526.177 530.974C533.158 521.825 535.763 513.168 535.235 505.039C534.705 496.883 531.009 489.062 525.024 481.636C513.02 466.742 492.098 453.795 470.636 443.458Z" fill="black"/>
<path d="M362.548 535.817C362.62 536.104 362.655 536.355 362.655 536.57C362.655 536.856 362.655 537.071 362.655 537.215C362.655 537.931 362.477 538.433 362.12 538.72C361.834 539.006 361.228 539.15 360.3 539.15C359.443 539.15 358.872 539.006 358.587 538.72C358.159 538.29 357.588 537.179 356.874 535.387C356.16 533.596 355.411 531.482 354.626 529.045C353.841 526.609 353.055 523.993 352.27 521.198C351.557 518.403 350.914 515.752 350.343 513.243C349.558 513.602 348.488 513.996 347.131 514.426C345.775 514.784 344.384 515.142 342.956 515.501C341.314 515.859 339.601 516.253 337.817 516.683C337.175 519.765 336.675 522.416 336.318 524.638C336.033 526.788 335.747 528.579 335.462 530.013C335.248 531.374 334.926 532.377 334.498 533.022C334.141 533.739 333.535 534.097 332.678 534.097C332.107 534.097 331.608 533.775 331.179 533.13C330.751 532.485 330.537 531.517 330.537 530.228C330.537 529.583 330.715 528.078 331.072 525.713C331.429 523.348 331.822 520.732 332.25 517.866C332.678 514.927 333.106 512.025 333.535 509.158C333.963 506.292 334.248 504.035 334.391 502.386C334.463 501.526 334.677 500.129 335.034 498.194C335.462 496.259 335.89 494.288 336.318 492.282C336.747 490.203 337.175 488.34 337.603 486.692C338.031 485.044 338.317 484.112 338.459 483.897C339.601 481.246 340.315 478.522 340.601 475.727C340.958 472.933 341.207 470.389 341.35 468.095C341.564 465.73 341.885 463.831 342.314 462.398C342.742 460.893 343.634 460.141 344.99 460.141C345.347 460.141 345.704 460.427 346.061 461.001C346.489 461.574 346.882 462.255 347.238 463.043C347.595 463.831 347.881 464.62 348.095 465.408C348.309 466.125 348.452 466.698 348.523 467.128C348.595 467.558 348.666 468.418 348.737 469.708C348.88 470.998 348.987 472.431 349.059 474.008C349.201 475.512 349.308 477.017 349.38 478.522C349.522 479.956 349.63 481.066 349.701 481.855C349.915 484.22 350.236 486.871 350.664 489.809C351.164 492.748 351.664 495.507 352.163 498.086C352.663 500.666 353.127 502.852 353.555 504.644C353.983 506.364 354.304 507.224 354.519 507.224C354.804 507.224 355.161 507.152 355.589 507.009C356.089 506.865 356.553 506.794 356.981 506.794C357.552 506.794 357.838 507.08 357.838 507.654C357.838 508.227 357.695 508.693 357.409 509.051C357.124 509.409 356.803 509.732 356.446 510.018C356.16 510.305 355.875 510.556 355.589 510.771C355.375 510.986 355.268 511.237 355.268 511.523C355.268 512.097 355.589 513.566 356.232 515.931L357.945 522.273C358.087 522.846 358.408 523.814 358.908 525.175C359.408 526.537 359.907 527.97 360.407 529.475C360.978 530.908 361.478 532.234 361.906 533.452C362.334 534.742 362.548 535.531 362.548 535.817ZM338.781 511.201C339.209 511.201 339.994 511.093 341.136 510.878C342.278 510.592 343.456 510.269 344.669 509.911C345.882 509.553 346.953 509.194 347.881 508.836C348.809 508.478 349.273 508.191 349.273 507.976C349.273 507.761 349.13 507.224 348.844 506.364C348.63 505.432 348.345 504.285 347.988 502.924C347.702 501.49 347.381 499.878 347.024 498.086C346.667 496.295 346.346 494.396 346.061 492.389C345.918 491.099 345.74 489.344 345.526 487.122C345.311 484.9 345.097 482.715 344.883 480.565C344.669 478.343 344.491 476.444 344.348 474.867C344.205 473.291 344.134 472.503 344.134 472.503C344.134 472.503 344.027 473.04 343.813 474.115C343.598 475.118 343.349 476.265 343.063 477.555C342.849 478.773 342.635 479.956 342.421 481.102C342.278 482.177 342.207 482.786 342.207 482.93V485.939C342.207 486.083 342.1 486.728 341.885 487.874C341.743 488.949 341.529 490.347 341.243 492.067C340.958 493.715 340.636 495.542 340.28 497.549C339.994 499.484 339.709 501.347 339.423 503.139C339.138 504.93 338.888 506.543 338.674 507.976C338.531 509.338 338.459 510.269 338.459 510.771C338.459 511.058 338.567 511.201 338.781 511.201Z" fill="black"/>
<path d="M396.513 516.898C396.513 518.116 396.085 519.191 395.228 520.123C394.443 520.983 393.408 521.735 392.124 522.38C390.91 522.954 389.554 523.42 388.055 523.778C386.557 524.136 385.129 524.423 383.773 524.638C382.417 524.781 381.204 524.889 380.133 524.96C379.134 524.96 378.491 524.96 378.206 524.96C376.636 524.96 375.422 524.709 374.566 524.208C373.709 523.706 373.281 522.81 373.281 521.52C373.281 521.09 373.317 520.732 373.388 520.445C373.459 520.087 373.745 519.908 374.245 519.908C374.459 519.908 374.816 519.98 375.315 520.123C375.815 520.195 376.207 520.23 376.493 520.23C376.778 520.23 377.671 520.195 379.169 520.123C380.74 519.98 382.381 519.765 384.094 519.478C385.879 519.191 387.449 518.797 388.805 518.296C390.232 517.722 390.946 517.006 390.946 516.146C390.946 516.002 390.197 515.572 388.698 514.856C387.27 514.067 385.093 512.777 382.167 510.986C379.883 509.553 378.277 508.119 377.349 506.686C376.421 505.181 375.958 503.175 375.958 500.666C375.958 499.09 376.279 497.8 376.921 496.797C377.635 495.793 378.563 495.005 379.705 494.432C380.918 493.858 382.274 493.464 383.773 493.249C385.343 492.963 386.985 492.819 388.698 492.819C388.841 492.819 389.269 492.891 389.983 493.034C390.768 493.177 391.588 493.428 392.445 493.787C393.301 494.073 394.051 494.467 394.693 494.969C395.407 495.399 395.764 495.901 395.764 496.474C395.764 496.617 395.621 496.832 395.336 497.119C395.121 497.406 394.729 497.943 394.158 498.731C393.944 498.66 393.551 498.552 392.98 498.409C392.481 498.266 391.874 498.122 391.16 497.979C390.518 497.764 389.84 497.621 389.126 497.549C388.412 497.406 387.841 497.334 387.413 497.334C385.557 497.334 384.058 497.692 382.917 498.409C381.775 499.054 381.204 500.344 381.204 502.279C381.204 503.21 381.56 504.07 382.274 504.859C383.059 505.647 384.023 506.399 385.165 507.116C386.307 507.761 387.52 508.442 388.805 509.158C390.161 509.803 391.41 510.52 392.552 511.308C393.694 512.097 394.622 512.957 395.336 513.888C396.121 514.748 396.513 515.752 396.513 516.898Z" fill="black"/>
<path d="M411.989 481.64C411.989 481.783 411.739 482.07 411.239 482.5C410.739 482.93 410.133 483.395 409.419 483.897C408.777 484.327 408.099 484.721 407.385 485.08C406.671 485.438 406.1 485.617 405.672 485.617C405.386 485.617 404.994 485.617 404.494 485.617C404.066 485.545 403.602 485.402 403.102 485.187C402.674 484.972 402.282 484.685 401.925 484.327C401.568 483.897 401.39 483.36 401.39 482.715C401.39 481.711 401.746 480.78 402.46 479.92C403.174 478.988 404.102 478.522 405.244 478.522C405.458 478.522 405.922 478.63 406.635 478.845C407.421 478.988 408.206 479.203 408.991 479.49C409.776 479.776 410.454 480.099 411.025 480.457C411.667 480.816 411.989 481.21 411.989 481.64ZM415.522 521.843C415.522 522.345 415.129 522.775 414.344 523.133C413.63 523.491 413.095 523.67 412.738 523.67C412.024 523.67 411.382 523.205 410.811 522.273C410.24 521.341 409.74 520.266 409.312 519.048C408.884 517.83 408.527 516.683 408.241 515.608C407.956 514.462 407.742 513.673 407.599 513.243C407.385 512.527 407.099 511.667 406.743 510.663C406.386 509.66 406.029 508.693 405.672 507.761C405.386 506.829 405.137 506.005 404.923 505.289C404.708 504.572 404.601 504.178 404.601 504.106C404.601 503.103 404.78 502.171 405.137 501.311C405.565 500.451 406.065 500.021 406.635 500.021C407.278 500.021 407.956 500.523 408.67 501.526C409.383 502.53 410.061 503.82 410.704 505.396C411.418 506.901 412.06 508.585 412.631 510.448C413.202 512.24 413.702 513.96 414.13 515.608C414.558 517.185 414.879 518.582 415.093 519.8C415.379 520.947 415.522 521.628 415.522 521.843Z" fill="black"/>
<path d="M473.15 508.728C473.15 510.018 472.543 511.631 471.33 513.566C470.188 515.429 468.617 517.256 466.619 519.048C464.62 520.84 462.301 522.38 459.66 523.67C457.019 524.889 454.271 525.498 451.416 525.498C450.131 525.498 448.775 525.283 447.348 524.853C445.92 524.423 444.529 523.814 443.173 523.025C441.816 522.165 440.603 521.162 439.532 520.015C438.462 518.797 437.677 517.436 437.177 515.931C436.749 516.361 436.214 517.077 435.571 518.081C435 519.084 434.358 520.123 433.644 521.198C432.93 522.201 432.145 523.097 431.289 523.885C430.432 524.602 429.54 524.96 428.612 524.96C427.684 524.96 426.899 524.494 426.257 523.563C425.686 522.56 425.222 521.485 424.865 520.338C424.508 519.12 424.258 517.973 424.116 516.898C423.973 515.823 423.902 515.214 423.902 515.071C423.902 514.211 424.151 512.598 424.651 510.233C425.151 507.797 425.9 505.289 426.899 502.709C427.899 500.129 429.148 497.836 430.646 495.829C432.217 493.822 434.037 492.819 436.107 492.819C436.892 492.819 437.391 493.177 437.605 493.894C437.891 494.539 438.034 495.184 438.034 495.829V499.054C438.39 499.341 438.747 499.556 439.104 499.699C439.532 499.771 439.889 499.914 440.175 500.129C440.532 500.272 440.782 500.523 440.924 500.881C441.138 501.24 441.245 501.813 441.245 502.601C441.245 503.103 441.21 503.569 441.138 503.999C441.067 504.357 441.031 504.715 441.031 505.074C441.031 506.937 441.174 508.764 441.46 510.556C441.745 512.347 442.316 513.96 443.173 515.393C444.029 516.755 445.207 517.901 446.706 518.833C448.204 519.693 450.203 520.123 452.701 520.123C455.841 520.123 458.482 519.478 460.623 518.188C462.836 516.826 464.656 515.357 466.084 513.781C467.582 512.132 468.76 510.663 469.617 509.373C470.473 508.012 471.187 507.331 471.758 507.331C472.686 507.331 473.15 507.797 473.15 508.728ZM435.571 503.999C435.571 503.712 435.5 503.461 435.357 503.246C435.214 502.96 435.143 502.709 435.143 502.494C435.143 502.207 435.214 501.956 435.357 501.741C435.5 501.526 435.571 501.24 435.571 500.881C435.571 500.666 435.5 500.523 435.357 500.451C435.214 500.308 435.143 500.165 435.143 500.021C434.501 500.165 433.823 500.774 433.109 501.849C432.466 502.924 431.824 504.178 431.182 505.611C430.611 507.044 430.147 508.513 429.79 510.018C429.433 511.452 429.255 512.634 429.255 513.566C429.255 514.067 429.397 514.892 429.683 516.038C429.968 517.185 430.29 517.937 430.646 518.296C431.86 515.787 432.966 513.351 433.965 510.986C435.036 508.621 435.571 506.292 435.571 503.999Z" fill="black"/>
<path fill-rule="evenodd" clip-rule="evenodd" d="M30.5823 507.327C31.8544 505.655 33.4375 503.981 35.0493 502.356C35.5253 501.876 36.0079 501.396 36.4848 500.922C37.5968 499.817 38.678 498.742 39.5731 497.765C44.759 492.105 50.8274 487.283 56.971 482.469C57.1994 482.29 57.4237 482.108 57.6462 481.925C46.1525 501.652 55.1718 524.288 68.2188 540.663C95.028 574.311 141.722 585.898 182.383 577.238C201.062 573.259 219.111 566.639 236.116 558.021C238.156 556.987 240.363 555.612 242.572 554.235C243.703 553.53 244.834 552.825 245.944 552.165C249.326 550.155 252.619 548.488 255.732 547.92C256.543 547.772 257.08 546.991 256.933 546.176C256.786 545.361 256.009 544.82 255.199 544.968C251.525 545.639 247.841 547.553 244.426 549.583C243.185 550.321 241.99 551.066 240.832 551.788C238.705 553.115 236.703 554.364 234.773 555.342C217.976 563.855 200.169 570.383 181.764 574.303C141.949 582.783 96.5021 571.362 70.5477 538.788C56.8731 521.625 48.6656 498.723 62.5627 479.886C62.8052 479.557 63.2695 479.206 63.9231 478.868C64.5533 478.542 65.2262 478.295 65.7669 478.107C65.8216 478.088 65.8782 478.069 65.9351 478.049C66.1294 477.982 66.3277 477.914 66.4678 477.859L66.4743 477.856C66.541 477.83 66.7353 477.754 66.9143 477.633C66.9707 477.594 67.0677 477.524 67.1695 477.418C67.2594 477.324 67.4473 477.107 67.5418 476.765C67.6559 476.351 67.5921 475.899 67.3479 475.527C67.1455 475.218 66.8869 475.067 66.7656 475.006C66.531 474.886 66.3143 474.854 66.2544 474.845L66.252 474.845C66.158 474.831 66.0708 474.826 66.0059 474.823C65.874 474.817 65.7223 474.818 65.5669 474.822C65.2506 474.829 64.8 474.851 64.2068 474.882C64.0324 474.891 63.8591 474.908 63.6872 474.931C65.3128 473.655 66.8225 472.518 68.1185 471.612C69.1599 470.885 70.0172 470.34 70.6623 469.992C74.1301 487.931 81.4016 502.077 97.9202 512.212C98.6236 512.644 99.5418 512.421 99.9711 511.713C100.4 511.006 100.178 510.083 99.4748 509.652C83.4835 499.84 76.6092 486.127 73.3471 468.113C73.2705 467.69 73.0414 467.232 72.5829 466.922C72.167 466.64 71.7299 466.595 71.4384 466.602C70.8896 466.614 70.3359 466.826 69.9019 467.023C68.9677 467.449 67.7568 468.212 66.4156 469.149C63.7017 471.045 60.1504 473.87 56.5959 476.823C49.5126 482.708 42.1993 489.285 41.2659 490.282L41.2568 490.292C36.7718 495.084 32.0984 500.077 28.1852 505.539C27.1558 506.896 26.2555 508.326 25.673 509.788C25.6416 509.867 25.6111 509.946 25.5867 510.016C25.5751 510.049 25.5576 510.101 25.5414 510.16C25.5335 510.189 25.5206 510.239 25.5094 510.301L25.5092 510.302C25.502 510.341 25.4748 510.489 25.487 510.678C25.4928 510.769 25.5134 510.982 25.628 511.225C25.7577 511.501 26.046 511.877 26.5669 512.026C27.0331 512.161 27.4122 512.031 27.5771 511.958C27.7537 511.881 27.875 511.786 27.931 511.74C28.0465 511.644 28.1218 511.551 28.1459 511.522C28.18 511.479 28.2062 511.443 28.222 511.42C28.2766 511.341 28.3242 511.257 28.3492 511.213C28.4483 511.038 28.6117 510.725 28.7886 510.385C28.8146 510.336 28.8408 510.285 28.8672 510.235C29.3229 509.361 29.8497 508.367 30.1373 507.956L30.125 507.947L30.1373 507.956C30.2844 507.745 30.4327 507.536 30.5823 507.327ZM28.4032 511.007C28.4033 511.006 28.4036 511.006 28.4039 511.005C28.4029 511.008 28.4026 511.009 28.4032 511.007ZM65.4154 475.05C65.4157 475.05 65.4104 475.053 65.3983 475.058C65.4089 475.053 65.415 475.05 65.4154 475.05Z" fill="black"/>
</svg>
