<svg width="214" height="47" viewBox="0 0 214 47" fill="none" xmlns="http://www.w3.org/2000/svg">
<path fill-rule="evenodd" clip-rule="evenodd" d="M84.7176 43.7751C84.7539 43.9678 84.814 44.1601 84.9036 44.3493C85.3497 45.2918 86.2428 45.5932 86.8037 45.6985C87.3805 45.8067 88.0128 45.7878 88.5026 45.7632C88.6893 45.7539 88.8586 45.7436 89.0164 45.734L89.0175 45.7339C89.3366 45.7145 89.6091 45.6979 89.8805 45.6979C93.5185 45.6979 97.2051 45.5751 100.862 45.4532C103.481 45.366 106.085 45.2792 108.645 45.2385C113.274 45.1648 117.944 44.5985 122.432 44.0543C123.458 43.9297 124.551 43.7303 125.596 43.5393C126.139 43.4403 126.669 43.3435 127.17 43.2607C128.713 43.006 130.149 42.8492 131.51 42.9629C131.598 42.9703 131.758 43.0095 132.031 43.1111C132.045 43.1166 132.062 43.1229 132.08 43.1301L132.151 43.1575L132.229 43.1882L132.23 43.1886C132.436 43.2701 132.72 43.3819 132.908 43.4399C133.052 43.4846 133.336 43.5656 133.66 43.5588C134.021 43.5513 134.693 43.4131 135.089 42.7318C135.402 42.1927 135.322 41.6498 135.282 41.4339C135.23 41.1603 135.132 40.8884 135.029 40.6431C134.406 39.1587 134.157 37.2232 134.088 35.0876C134.044 33.7268 134.071 32.4162 134.098 31.1441L134.098 31.1423C134.114 30.3845 134.13 29.6403 134.13 28.9072V6.02349C134.13 5.6555 134.159 5.07753 134.19 4.44878L134.19 4.44687C134.21 4.0611 134.23 3.65628 134.245 3.26916C134.262 2.83007 134.277 2.3289 134.247 2.00963C134.241 1.94305 134.223 1.75337 134.153 1.54904C134.128 1.47387 134.026 1.17685 133.747 0.91367C133.584 0.760576 133.328 0.587579 132.976 0.524035C132.616 0.459039 132.297 0.533927 132.061 0.644872C131.668 0.830375 131.472 1.13025 131.425 1.20146L131.425 1.20253C131.349 1.31738 131.302 1.42206 131.276 1.48239C131.222 1.60782 131.183 1.73495 131.155 1.83291C130.878 2.80538 130.448 3.71904 129.97 4.73599C129.793 5.11156 129.609 5.50208 129.424 5.91399C127.68 9.80184 125.399 13.5517 123.099 17.3321C122.338 18.5815 121.576 19.8341 120.831 21.0962C120.741 21.248 120.658 21.392 120.58 21.5276L120.495 21.4018C117.192 16.5096 114.143 11.643 112.585 6.16984L112.584 6.16833L112.583 6.16385L112.579 6.14757C112.575 6.13349 112.57 6.1153 112.565 6.09243C112.554 6.04634 112.54 5.98839 112.524 5.918C112.5 5.81382 112.472 5.69305 112.441 5.55603L112.406 5.39944C112.316 5.00093 112.203 4.50668 112.083 4.03822C111.968 3.58853 111.829 3.09078 111.681 2.71587C111.624 2.57201 111.494 2.25181 111.263 1.98413C111.166 1.87214 110.821 1.49219 110.221 1.42618C109.463 1.34282 108.977 1.8015 108.781 2.07119C108.53 2.41592 108.277 2.76147 108.023 3.10821L108.022 3.10937C107.077 4.40125 106.119 5.70985 105.196 7.05528C101.709 12.139 98.7026 17.6097 97.5526 23.8579L97.5294 23.8342C96.6337 22.9356 95.702 22.1217 94.7951 21.3466C94.6104 21.1887 94.4274 21.033 94.2459 20.8786C93.5239 20.2643 92.8256 19.6702 92.1403 19.0421C90.3403 17.3923 89.067 15.354 87.7142 13.1067L87.5068 12.7618C86.2452 10.6623 84.8773 8.38584 82.9588 6.46102C82.8506 6.35247 82.551 6.07385 82.0693 5.99347C81.4378 5.88808 80.9221 6.17924 80.6311 6.51677C80.4019 6.78253 80.3148 7.0613 80.2818 7.17947C80.2409 7.32589 80.2215 7.46125 80.2109 7.56067C80.172 7.92469 80.1965 8.37778 80.2238 8.73271C80.2674 9.29861 80.3555 10.0018 80.4003 10.3595L80.4008 10.3633L80.4011 10.3656C80.4136 10.4656 80.4227 10.5378 80.4262 10.5712C80.6556 12.7345 81.0457 14.8656 81.4239 16.9319L81.4382 17.0102C81.8244 19.12 82.1964 21.1641 82.4093 23.221C82.5722 24.7954 82.6033 26.478 82.6058 28.2531C82.6063 28.6817 82.6052 29.1171 82.604 29.5572V29.5795C82.6004 30.9304 82.5967 32.3246 82.6411 33.6979C82.7508 37.0962 83.1548 40.6364 84.7176 43.7751ZM125.591 19.0304C124.849 20.2493 124.117 21.4523 123.417 22.6359C123.225 22.961 123.063 23.2492 122.919 23.5063L122.859 23.6136L122.858 23.6154C122.741 23.8254 122.628 24.0274 122.527 24.1981C122.414 24.3889 122.27 24.6202 122.1 24.8209C121.951 24.9966 121.607 25.3652 121.044 25.4907C120.384 25.6377 119.863 25.3691 119.575 25.1522C119.316 24.9565 119.119 24.7116 118.99 24.5418C118.814 24.3093 118.592 23.976 118.348 23.6077C118.238 23.4421 118.123 23.2694 118.006 23.0956C114.698 18.1959 111.396 12.98 109.693 6.99965C109.648 6.8396 109.578 6.53118 109.508 6.21882L109.501 6.1904C108.881 7.04392 108.271 7.89595 107.673 8.76739C103.898 14.2714 100.936 19.9181 100.224 26.3442C100.19 26.6546 100.082 27.1723 99.6663 27.5923C99.17 28.0935 98.5445 28.1602 98.0986 28.0841C97.7108 28.018 97.3993 27.8434 97.2097 27.7217C97 27.5873 96.808 27.4309 96.6464 27.2871C96.3231 26.9994 96.0165 26.6671 95.7926 26.4153C95.6923 26.3024 95.6013 26.1974 95.5305 26.1157L95.502 26.0829L95.4553 26.0291L95.4118 25.9795C95.3986 25.9645 95.3978 25.9636 95.4037 25.9695C94.5974 25.1606 93.7419 24.4112 92.8457 23.6452C92.6747 23.499 92.5016 23.3518 92.327 23.2032L92.3209 23.198C91.5948 22.5804 90.8431 21.9409 90.1127 21.2715C87.9499 19.2892 86.4775 16.889 85.1405 14.6681L84.9896 14.4173C84.5463 13.6804 84.1161 12.9653 83.677 12.2775C83.8809 13.6511 84.1334 15.0305 84.3913 16.4399L84.3958 16.4646C84.7788 18.5569 85.1733 20.7157 85.4003 22.9091C85.5801 24.6462 85.6105 26.4585 85.6129 28.2489C85.6135 28.707 85.6123 29.1622 85.6111 29.6153V29.6224L85.6111 29.6295C85.6076 30.9665 85.6042 32.2846 85.6466 33.6001C85.7321 36.2469 86.0031 38.7077 86.7627 40.8874C86.8274 40.9038 86.8918 40.9247 86.9555 40.9503C87.6772 41.2403 88.0518 42.0287 87.8435 42.7632C87.987 42.7631 88.1554 42.7581 88.3525 42.7482C88.4659 42.7425 88.5937 42.7348 88.7298 42.7265C89.0925 42.7046 89.5145 42.6791 89.8805 42.6791C93.5118 42.6791 97.0691 42.5596 100.655 42.4392C103.274 42.3513 105.908 42.2629 108.598 42.22C113.043 42.1493 117.556 41.6047 122.071 41.0572C123.019 40.9423 123.942 40.7731 124.921 40.5936C125.484 40.4903 126.066 40.3836 126.682 40.2819C128.26 40.0214 129.952 39.8179 131.652 39.9461C131.278 38.4073 131.134 36.7586 131.082 35.1862C131.036 33.7672 131.067 32.2757 131.094 30.9362V30.9336C131.109 30.2003 131.123 29.5123 131.123 28.9072V9.35029C129.467 12.6616 127.495 15.9007 125.591 19.0304ZM133.818 40.5617C133.818 40.5617 133.813 40.5609 133.803 40.5579L133.811 40.5598L133.818 40.5617ZM98.8424 25.1859L98.841 25.1853C98.841 25.1853 98.836 25.1825 98.8313 25.1794L98.8388 25.1836C98.8412 25.185 98.8424 25.1859 98.8424 25.1859ZM108.86 3.7704C108.86 3.7704 108.863 3.77525 108.868 3.78708C108.862 3.77668 108.86 3.7704 108.86 3.7704Z" fill="black"/>
<path d="M206.054 8.09755C206.211 8.91628 205.676 9.70714 204.86 9.86397C196.184 11.5324 188.807 13.5936 180.752 17.1634C179.992 17.5001 179.105 17.1548 178.769 16.3922C178.434 15.6296 178.778 14.7384 179.538 14.4018C187.851 10.7174 195.457 8.59864 204.295 6.89907C205.11 6.74224 205.898 7.27881 206.054 8.09755Z" fill="black"/>
<path d="M182.962 24.0289C187.932 24.3071 192.885 24.3078 197.783 24.3085H197.787C202.701 24.3092 207.561 24.31 212.413 24.5817C213.242 24.6281 213.951 23.991 213.998 23.1586C214.044 22.3263 213.409 21.614 212.58 21.5675C207.643 21.2911 202.713 21.2904 197.825 21.2897L197.788 21.2897C192.874 21.289 188.004 21.2876 183.13 21.0148C182.301 20.9683 181.591 21.6055 181.545 22.4378C181.498 23.2701 182.133 23.9825 182.962 24.0289Z" fill="black"/>
<path d="M178.841 32.8324C179.114 32.0448 179.97 31.6279 180.755 31.9012C184.802 33.311 188.797 34.9093 192.758 36.4939C194.086 37.0252 195.411 37.5553 196.732 38.076C202.019 40.1593 207.294 42.1128 212.747 43.5288C213.551 43.7376 214.034 44.561 213.826 45.3681C213.618 46.1752 212.798 46.6602 211.994 46.4514C206.359 44.9881 200.946 42.9796 195.633 40.886C194.279 40.3525 192.935 39.8145 191.594 39.2783C187.65 37.7005 183.746 36.1386 179.769 34.7532C178.984 34.4799 178.569 33.6199 178.841 32.8324Z" fill="black"/>
<path d="M11.4488 5.92197C10.6197 5.87555 9.91007 6.51265 9.86383 7.34498C9.81759 8.17731 10.4522 8.88967 11.2813 8.93609C17.0484 9.25899 22.3816 10.8624 27.7616 12.7895C29.103 13.27 30.4539 13.7734 31.8164 14.2811C35.8612 15.7885 40.0084 17.3341 44.3142 18.4305C45.1191 18.6355 45.9371 18.1466 46.1413 17.3385C46.3455 16.5305 45.8585 15.7093 45.0536 15.5043C40.9179 14.4513 36.9882 12.987 32.9846 11.4953C31.5933 10.9769 30.193 10.4552 28.7721 9.94623C23.3188 7.99292 17.6571 6.26957 11.4488 5.92197Z" fill="black"/>
<path d="M21.1823 26.7455C27.7086 26.8375 34.2682 26.9298 40.8344 27.2975C41.6635 27.3439 42.2981 28.0563 42.2519 28.8886C42.2056 29.7209 41.496 30.358 40.6669 30.3116C34.1655 29.9476 27.6603 29.8559 21.1154 29.7637L21.1092 29.7636C14.5767 29.6716 8.00471 29.579 1.41989 29.2103C0.590774 29.1639 -0.0438667 28.4516 0.00237473 27.6192C0.0486162 26.7869 0.75823 26.1498 1.58734 26.1962C8.10128 26.5609 14.6128 26.653 21.1576 26.7452L21.1823 26.7455Z" fill="black"/>
<path d="M39.2297 40.0833C40.0577 40.0201 40.6779 39.295 40.615 38.4638C40.552 37.6326 39.8298 37.01 39.0018 37.0732C34.1391 37.4442 29.1439 38.7421 24.3032 39.9997C23.5762 40.1886 22.8523 40.3767 22.1333 40.5604C16.5451 41.9888 11.1942 43.1761 6.11924 42.8919C5.29013 42.8455 4.58052 43.4826 4.53427 44.315C4.48803 45.1473 5.12267 45.8597 5.95179 45.9061C11.5416 46.219 17.3032 44.9101 22.8753 43.4859C23.614 43.2971 24.349 43.1064 25.0805 42.9166C29.947 41.654 34.6553 40.4324 39.2297 40.0833Z" fill="black"/>
</svg>
