<svg width="214" height="57" viewBox="0 0 214 57" fill="none" xmlns="http://www.w3.org/2000/svg">
<path fill-rule="evenodd" clip-rule="evenodd" d="M110.367 2.01306C110.033 1.76584 109.767 1.54588 109.506 1.32936C109.411 1.25147 109.318 1.17379 109.221 1.09568C108.884 0.8208 108.492 0.517466 108.026 0.304979C106.978 -0.173732 105.886 -0.0552913 104.436 0.42666C103.802 0.637495 103.46 1.32116 103.671 1.95367C103.807 2.361 104.14 2.64779 104.529 2.74404C104.262 3.35104 104.127 3.99236 104.107 4.63842C104.062 6.08684 104.591 7.49817 105.36 8.60508C105.822 9.27106 106.39 9.70843 107.003 9.9681C106.98 10.1205 106.957 10.2872 106.937 10.4304L106.929 10.4816C106.911 10.6114 106.899 10.6959 106.892 10.7441C106.885 10.7856 106.883 10.8004 106.885 10.7936C106.729 11.4349 106.539 12.0665 106.339 12.7331L106.262 12.9904C106.038 13.7397 105.808 14.5316 105.634 15.3515C105.001 18.3349 103.895 21.1572 102.752 24.073L102.751 24.0743L102.75 24.0761L102.749 24.0788C102.459 24.8191 102.167 25.5655 101.879 26.322C100.866 28.9841 99.9288 31.7417 99.4872 34.6614C99.3768 34.4784 99.2665 34.2946 99.1558 34.1103C97.7427 31.7563 96.2778 29.3161 94.031 27.2786C89.0348 22.7477 82.6368 18.807 76.4274 16.2141C76.3239 16.1709 76.1441 16.0685 75.8777 15.9053L75.8366 15.8801L75.7715 15.8399C75.569 15.7149 75.314 15.5575 75.114 15.4579C75.0475 15.4248 74.9617 15.385 74.8664 15.3508C74.7895 15.3232 74.6159 15.2651 74.3991 15.2603C74.1865 15.2556 73.6493 15.3079 73.3104 15.8281C73.0245 16.2671 73.1157 16.7054 73.1438 16.8249C73.2107 17.1094 73.3686 17.3592 73.4543 17.4912C73.5682 17.6667 73.7197 17.8743 73.9057 18.1145C75.3002 19.9147 76.9716 21.4574 78.5623 22.9258L78.8652 23.2054C80.5729 24.784 82.1755 26.3023 83.457 28.0947C88.6112 35.304 89.5694 43.0815 89.5694 51.9025C89.5694 52.5692 90.1112 53.1097 90.7796 53.1097C91.4479 53.1097 91.9897 52.5692 91.9897 51.9025C91.9897 42.9256 91.0263 34.5239 85.4276 26.6928C83.9837 24.6733 82.2061 23.002 80.5102 21.4344L80.2464 21.1907C79.8341 20.8099 79.4277 20.4346 79.0303 20.06C83.8399 22.4524 88.5678 25.5871 92.4029 29.0651C94.3608 30.8406 95.6083 32.9124 97.011 35.2421L97.0115 35.243C97.3414 35.7908 97.6802 36.3536 98.0385 36.9294C98.0358 36.9251 98.0363 36.9259 98.04 36.9335C98.0481 36.9499 98.072 36.9979 98.1138 37.0933C98.1672 37.2151 98.2296 37.3666 98.3019 37.544L98.3436 37.6465C98.474 37.967 98.6306 38.3521 98.7806 38.6711C98.8627 38.8458 98.9612 39.0407 99.07 39.2102C99.1238 39.2939 99.2003 39.4037 99.2999 39.5098C99.378 39.593 99.5829 39.7988 99.9128 39.8992C100.1 39.9562 100.337 39.9815 100.593 39.918C100.85 39.8546 101.048 39.722 101.187 39.5847C101.432 39.3422 101.52 39.0625 101.553 38.9424C101.628 38.6717 101.642 38.362 101.642 38.092C101.642 34.333 102.759 30.8148 104.142 27.1785C104.41 26.473 104.69 25.7602 104.972 25.0401C105.943 22.5664 106.948 20.005 107.646 17.3456L107.686 17.6914L107.686 17.6924L107.687 17.6965L107.687 17.6996C107.762 18.3481 107.836 18.9958 107.905 19.6437C108.073 21.2167 108.221 22.8146 108.37 24.4239L108.37 24.4253C108.747 28.5042 109.131 32.6613 109.868 36.7032C109.967 37.2443 110.024 37.7996 110.077 38.3133L110.078 38.3242C110.104 38.5736 110.13 38.8254 110.16 39.0427C110.187 39.2408 110.229 39.4986 110.306 39.7249C110.342 39.8297 110.42 40.0364 110.586 40.2328C110.777 40.4598 111.17 40.7545 111.725 40.6909C112.175 40.6394 112.454 40.3737 112.558 40.2651C112.684 40.1322 112.777 39.9886 112.841 39.8789C113.082 39.4671 113.355 38.7566 113.691 37.7777C115.036 33.8546 117.894 30.0371 121.397 26.6603C124.428 23.7392 127.889 21.1984 131.137 19.2551C128.238 23.9574 126.105 29.3756 124.737 34.2663C123.091 40.1484 122.474 46.2244 122.474 52.2437C122.474 52.2478 122.474 52.2631 122.473 52.2957L122.471 52.3354L122.466 52.4421L122.461 52.5541C122.456 52.6534 122.451 52.7703 122.445 52.8959C122.434 53.1551 122.422 53.4655 122.415 53.7876C120.032 53.3184 117.48 53.3617 115.036 53.4867C114.411 53.5187 113.795 53.5558 113.188 53.5923L113.186 53.5924C111.208 53.7114 109.33 53.8244 107.561 53.7361C105.929 53.6547 104.334 53.3773 102.658 53.0858C102.194 53.005 101.722 52.923 101.243 52.8439C99.0788 52.487 96.7903 52.1999 94.4161 52.4785C94.0432 52.5223 92.8651 52.7481 91.9999 52.9559C91.7775 53.0093 91.5617 53.0648 91.375 53.1193C91.2118 53.167 90.9945 53.2352 90.8151 53.324C90.7647 53.3489 90.6909 53.3882 90.6115 53.4438C90.5488 53.4877 90.3918 53.603 90.2624 53.8043C90.1101 54.0411 89.954 54.4865 90.1757 54.9749C90.3537 55.3672 90.6713 55.5334 90.7769 55.5838C91.004 55.6922 91.2277 55.7139 91.3002 55.7209L91.3028 55.7212C91.4164 55.7322 91.5379 55.7357 91.657 55.7357C92.0324 55.7357 92.3679 55.5652 92.5898 55.2976C93.419 55.0995 94.4704 54.9032 94.6989 54.8764C96.7178 54.6395 98.7258 54.876 100.848 55.226C101.276 55.2966 101.711 55.3725 102.153 55.4494L102.16 55.4506L102.163 55.4512C103.859 55.7468 105.645 56.058 107.44 56.1475C109.356 56.2431 111.42 56.1185 113.425 55.9975C114.01 55.9621 114.59 55.9271 115.16 55.8979C117.728 55.7666 120.147 55.7476 122.298 56.2301L122.32 56.2382C122.366 56.2552 122.432 56.2805 122.51 56.3122C122.611 56.3529 122.723 56.4003 122.833 56.449C123.018 56.7006 123.353 57 123.904 57C123.982 57 124.131 56.9961 124.3 56.9506C124.412 56.9206 124.908 56.7755 125.136 56.2264C125.382 55.6381 125.091 55.165 125.009 55.0458C124.955 54.9683 124.899 54.9043 124.848 54.8541C124.836 54.661 124.831 54.4235 124.832 54.1565C124.833 53.7597 124.848 53.3463 124.863 53.0023C124.867 52.9113 124.871 52.8181 124.876 52.7289L124.876 52.7251C124.886 52.5167 124.895 52.3301 124.895 52.2429C124.895 46.3835 125.496 40.5356 127.068 34.9153C128.787 28.7708 131.71 21.9318 135.736 16.892C135.937 16.7908 136.14 16.6869 136.341 16.5808C137.083 16.1887 137.84 15.7469 138.466 15.2726C138.838 14.9914 139.236 14.6458 139.548 14.2355C139.759 14.3947 139.979 14.5422 140.206 14.6755C141.248 15.2862 142.547 15.6504 143.892 15.3437C144.574 15.1882 145.246 14.8081 145.811 14.3632C146.387 13.9098 146.931 13.3264 147.333 12.6745C147.728 12.033 148.038 11.2361 147.996 10.3845C147.952 9.47407 147.511 8.64599 146.676 8.03753C145.395 7.10348 143.826 6.87341 142.443 6.8312C141.739 6.8097 141.034 6.83661 140.387 6.86649L140.08 6.88095C139.541 6.90657 139.054 6.9297 138.601 6.9297C137.933 6.9297 137.391 7.47018 137.391 8.1369C137.391 8.2284 137.401 8.31753 137.421 8.4032C137.323 8.56676 137.241 8.74448 137.177 8.93669C136.808 10.0346 137.162 11.2122 137.681 12.1266C137.451 12.2504 137.204 12.3971 136.975 12.5376C136.619 12.7565 136.258 12.9917 135.983 13.1768C135.844 13.2694 135.724 13.3519 135.633 13.4155C135.589 13.4468 135.547 13.4768 135.512 13.5028C135.495 13.5153 135.473 13.5314 135.451 13.5486L135.431 13.5648L135.42 13.574L135.405 13.5865L135.405 13.5871C135.393 13.5974 135.348 13.6359 135.298 13.6899C134.919 14.1004 134.549 14.5252 134.188 14.9625C133.827 15.1383 133.469 15.3071 133.128 15.4677L132.978 15.5378C132.39 15.8142 131.825 16.0791 131.433 16.2967C127.618 18.4107 123.377 21.3942 119.715 24.924C116.54 27.9841 113.748 31.5059 112.076 35.2787C111.471 31.669 111.133 28.0091 110.791 24.3113L110.791 24.3101C110.64 22.6767 110.488 21.0358 110.312 19.3883C110.238 18.6925 110.16 18.0128 110.083 17.3438C109.803 14.9124 109.539 12.6184 109.539 10.184C110.631 9.97761 111.674 9.45463 112.5 8.8884C113.37 8.29175 113.998 7.51936 114.076 6.5426C114.151 5.60463 113.685 4.83714 113.238 4.30985C112.779 3.76801 112.188 3.30044 111.678 2.93009C111.417 2.74091 111.16 2.56474 110.936 2.41118C110.704 2.25246 110.517 2.12444 110.367 2.01306ZM106.526 4.7131C106.548 4.02195 106.8 3.34699 107.445 2.77219C107.518 2.82732 107.599 2.8916 107.692 2.9669C107.763 3.02467 107.841 3.08901 107.925 3.1586C108.196 3.38282 108.533 3.6616 108.923 3.95122C109.113 4.09144 109.334 4.24301 109.548 4.38972L109.566 4.40191C109.794 4.55756 110.024 4.7157 110.254 4.88241C110.724 5.22383 111.123 5.55433 111.39 5.86867C111.669 6.19756 111.664 6.34436 111.664 6.35057C111.663 6.35426 111.662 6.36251 111.656 6.37807C111.65 6.39435 111.636 6.42517 111.604 6.47031C111.538 6.56399 111.401 6.71212 111.129 6.89883C110.378 7.41339 109.537 7.78011 108.822 7.85039C108.173 7.91425 107.705 7.74293 107.35 7.23078C106.812 6.45609 106.501 5.543 106.526 4.7131ZM139.079 14.1311L139.082 14.1299C139.082 14.1296 139.077 14.1313 139.066 14.1358C139.072 14.1338 139.076 14.1321 139.079 14.1311ZM140.787 9.26557C140.674 9.30814 140.554 9.33461 140.427 9.34202C139.559 9.39301 139.48 9.6732 139.472 9.7016L139.472 9.70344C139.415 9.87196 139.424 10.3175 139.811 10.9766C140.173 11.5944 140.758 12.1988 141.432 12.5937C142.104 12.9877 142.771 13.1227 143.353 12.99C143.572 12.9399 143.921 12.7753 144.311 12.4682C144.69 12.1696 145.035 11.7936 145.27 11.4107C145.513 11.0174 145.589 10.7039 145.579 10.5015C145.572 10.3578 145.524 10.1881 145.248 9.9869C144.566 9.48969 143.602 9.28211 142.369 9.24448C141.856 9.22881 141.328 9.24281 140.787 9.26557Z" fill="black"/>
<path fill-rule="evenodd" clip-rule="evenodd" d="M66.4807 8.96212C67.2954 8.07731 68.4292 7.63298 69.8915 7.84137C71.2576 8.03604 72.3457 8.62521 73.0642 9.61326C73.7588 10.5685 74.0017 11.7517 74.0017 12.951C74.0017 14.5459 73.3382 15.7497 72.1902 16.3743C71.1275 16.9525 69.8746 16.9087 68.8616 16.5753C67.8544 16.2439 66.832 15.5425 66.341 14.4826C66.16 14.0918 66.0658 13.6849 66.0583 13.2736C65.9813 13.2638 65.9042 13.2464 65.8278 13.221C65.1938 13.0101 64.8511 12.3265 65.0624 11.694C65.3557 10.8164 65.7551 9.7501 66.4807 8.96212ZM68.3617 10.4971C68.5079 10.5475 68.6467 10.6269 68.7694 10.7358C69.269 11.1787 69.314 11.9418 68.8699 12.4401C68.3762 12.9942 68.4624 13.3063 68.5381 13.4698C68.6676 13.7493 69.0413 14.0921 69.6199 14.2825C70.1927 14.471 70.7152 14.4266 71.0314 14.2546C71.2623 14.129 71.5813 13.8329 71.5813 12.951C71.5813 12.0443 71.3935 11.4277 71.1049 11.0309C70.8402 10.6669 70.3928 10.3517 69.5492 10.2315C68.9289 10.1431 68.6013 10.28 68.3617 10.4971Z" fill="black"/>
<path d="M9.86419 15.8481C9.91013 15.0209 10.6179 14.3879 11.445 14.4343C17.6539 14.782 23.3161 16.5062 28.7696 18.4603C30.1905 18.9695 31.5909 19.4915 32.9822 20.0101C36.9859 21.5024 40.9157 22.9672 45.0514 24.0207C45.8542 24.2252 46.3396 25.0418 46.1355 25.8446C45.9313 26.6474 45.115 27.1324 44.3122 26.9279C40.0061 25.831 35.8587 24.2848 31.8137 22.7768L31.8123 22.7763C30.4502 22.2685 29.0998 21.765 27.7588 21.2845C22.3786 19.3567 17.0456 17.7527 11.2787 17.4297C10.4515 17.3833 9.81825 16.6752 9.86419 15.8481Z" fill="black"/>
<path d="M204.864 18.3578C205.677 18.2013 206.21 17.415 206.053 16.6014C205.896 15.7879 205.109 15.2553 204.296 15.4117C195.458 17.1121 187.852 19.2318 179.539 22.9176C178.781 23.2533 178.44 24.1395 178.776 24.8968C179.112 25.6542 179.998 25.9961 180.756 25.6603C188.811 22.0889 196.188 20.027 204.864 18.3578Z" fill="black"/>
<path d="M197.786 32.8084C192.888 32.8077 187.935 32.8069 182.965 32.5285C182.138 32.4822 181.505 31.7741 181.551 30.947C181.597 30.1198 182.304 29.4868 183.132 29.5332C188.005 29.8061 192.876 29.8076 197.79 29.8084L197.827 29.8084C202.714 29.8091 207.645 29.8099 212.582 30.0864C213.409 30.1327 214.042 30.8408 213.996 31.668C213.951 32.4951 213.243 33.1281 212.416 33.0818C207.564 32.81 202.705 32.8092 197.791 32.8084H197.786Z" fill="black"/>
<path d="M178.848 41.3473C179.12 40.565 179.975 40.1519 180.757 40.4245C184.804 41.8349 188.799 43.4338 192.76 45.019L192.762 45.0197C194.09 45.5512 195.414 46.0811 196.735 46.6019C202.022 48.6861 207.297 50.6404 212.751 52.0569C213.552 52.2652 214.034 53.0841 213.826 53.8859C213.618 54.6877 212.8 55.1689 211.998 54.9606C206.362 53.4967 200.949 51.4873 195.636 49.3928C194.283 48.8594 192.939 48.3215 191.6 47.7855L191.597 47.7844C187.653 46.2061 183.748 44.6434 179.771 43.2575C178.989 42.9848 178.575 42.1296 178.848 41.3473Z" fill="black"/>
<path d="M21.1787 35.2664C27.7052 35.3584 34.265 35.4509 40.8314 35.8187C41.6586 35.8651 42.2919 36.5732 42.2459 37.4003C42.2 38.2275 41.4922 38.8604 40.6651 38.8141C34.1635 38.4499 27.6581 38.3581 21.113 38.2658L21.1069 38.2657C14.5743 38.1736 8.00182 38.0809 1.41683 37.712C0.589698 37.6657 -0.0435859 36.9576 0.00234901 36.1305C0.0482839 35.3033 0.756043 34.6703 1.58317 34.7167C8.09727 35.0815 14.6089 35.1737 21.1539 35.266L21.1787 35.2664Z" fill="black"/>
<path d="M40.6088 46.9801C40.6722 47.8061 40.0541 48.5269 39.2281 48.5899C34.6538 48.9391 29.9454 50.1612 25.0787 51.4244L25.0768 51.4249L25.0745 51.4255L25.0724 51.426C24.343 51.6153 23.61 51.8056 22.8734 51.9939C17.3013 53.4187 11.5392 54.7282 5.94874 54.4151C5.12161 54.3688 4.48833 53.6607 4.53426 52.8335C4.58019 52.0064 5.28795 51.3734 6.11509 51.4197C11.1898 51.7039 16.5406 50.5163 22.129 49.0873C22.8475 48.9036 23.5711 48.7155 24.2976 48.5267L24.299 48.5263C29.1398 47.2682 34.1354 45.9698 38.9983 45.5986C39.8243 45.5355 40.5453 46.154 40.6088 46.9801Z" fill="black"/>
</svg>
