<svg width="33" height="33" viewBox="0 0 33 33" fill="none" xmlns="http://www.w3.org/2000/svg">
<path d="M9.49461 16C9.49461 12.4075 12.4065 9.49414 15.9992 9.49414C19.5919 9.49414 22.5054 12.4075 22.5054 16C22.5054 19.5925 19.5919 22.5059 15.9992 22.5059C12.4065 22.5059 9.49461 19.5925 9.49461 16ZM5.97687 16C5.97687 21.5347 10.4642 26.0219 15.9992 26.0219C21.5342 26.0219 26.0216 21.5347 26.0216 16C26.0216 10.4653 21.5342 5.9797 15.9992 5.9797C10.4642 5.9797 5.97687 10.4653 5.97687 16ZM24.0761 5.58158C24.0761 6.87432 25.1238 7.9235 26.4166 7.92506C27.7094 7.92506 28.7586 6.87744 28.7602 5.5847C28.7617 4.29196 27.7125 3.24278 26.4197 3.24122H26.4182C25.1238 3.24122 24.0761 4.28884 24.0761 5.58158ZM8.11437 31.886C6.21108 31.7986 5.17746 31.4817 4.49046 31.2147C3.57863 30.8603 2.9291 30.4372 2.24523 29.7549C1.56136 29.0726 1.13823 28.4231 0.785362 27.5113C0.516809 26.8244 0.199854 25.7892 0.113979 23.8876C0.0187363 21.8298 0 21.2116 0 16C0 10.7884 0.0202976 10.1717 0.113979 8.11241C0.201415 6.20921 0.519932 5.17721 0.785362 4.48868C1.13979 3.57689 1.56292 2.9274 2.24523 2.24356C2.92754 1.55972 3.57707 1.13661 4.49046 0.783763C5.17746 0.515222 6.21264 0.198283 8.11437 0.112412C10.1707 0.0187354 10.789 0 15.9992 0C21.2095 0 21.8278 0.0202966 23.8872 0.113973C25.7905 0.201405 26.8225 0.519906 27.5111 0.785324C28.4229 1.13817 29.0725 1.56284 29.7563 2.24512C30.4402 2.9274 30.8618 3.57845 31.2162 4.49024C31.4848 5.17721 31.8017 6.21233 31.8876 8.11397C31.9828 10.1733 32.0016 10.7884 32.0016 16.0016C32.0016 21.2147 31.9828 21.8298 31.8876 23.8891C31.8001 25.7923 31.4832 26.8259 31.2162 27.5129C30.8618 28.4247 30.4386 29.0742 29.7563 29.7564C29.074 30.4387 28.4229 30.8618 27.5111 31.2162C26.8241 31.4848 25.7889 31.8017 23.8872 31.8876C21.8293 31.9828 21.2126 32.0016 15.9992 32.0016C10.7859 32.0016 10.1707 31.9813 8.11437 31.886Z" fill="white"/>
</svg>
