<svg width="67" height="48" viewBox="0 0 67 48" fill="none" xmlns="http://www.w3.org/2000/svg">
<path fill-rule="evenodd" clip-rule="evenodd" d="M66.8901 36.1812C66.9634 36.4477 67 36.581 67 36.6429C67 36.8571 67 36.9643 66.8901 37.1786V37.5C66.8901 38.0357 66.7802 38.4643 66.4504 38.6786C66.2306 38.8929 65.9008 39 65.2413 39C64.6917 39 64.252 38.8929 64.0322 38.6786C63.8123 38.4643 63.5925 38.0357 63.0429 36.8571C62.878 36.4286 62.7131 35.9464 62.5345 35.4241C62.3558 34.9018 62.1635 34.3393 61.9437 33.75C61.6301 32.9096 61.3725 32.0692 61.0911 31.1512C60.9778 30.7817 60.8607 30.3997 60.7345 30C60.6246 29.4643 60.4872 28.9286 60.3498 28.3929C60.2124 27.8571 60.075 27.3214 59.9651 26.7857C59.8185 26.8571 59.5743 26.9286 59.33 27C59.2079 27.0357 59.0857 27.0714 58.9758 27.1071C58.646 27.2143 58.2888 27.2946 57.9316 27.375C57.5743 27.4554 57.2171 27.5357 56.8873 27.6429C56.5026 27.75 56.1454 27.8304 55.7881 27.9107C55.4309 27.9911 55.0736 28.0714 54.6889 28.1786C54.3591 29.4643 54.1393 30.6429 54.0294 31.6071C53.9527 32.2795 53.8227 32.9518 53.7137 33.5152C53.6663 33.7598 53.623 33.9839 53.5897 34.1786C53.4798 34.8214 53.2599 35.3571 53.0401 35.7857C52.8203 36.2143 52.3806 36.5357 51.721 36.5357C51.3913 36.5357 50.9516 36.3214 50.5119 35.7857C50.1822 35.3571 50.0722 34.8214 50.0722 34.0714C50.0722 33.75 50.0722 33 50.2921 31.8214L50.8417 28.0714L51.5012 23.8929C51.6397 23.0152 51.7346 22.2652 51.8133 21.6428C51.8596 21.2774 51.9002 20.956 51.9409 20.6786C51.9409 20.25 52.0508 19.6071 52.2706 18.6429L52.9302 15.75C53.15 14.7857 53.3699 13.8214 53.5897 13.0714C53.9195 11.8929 54.0294 11.6786 54.1393 11.5714C54.6889 10.5 55.0187 9.21429 55.1286 7.92857C55.2385 6.64286 55.3484 5.35714 55.4583 4.28571C55.5683 3.10714 55.6782 2.14286 55.898 1.5C56.2278 0.535714 56.8873 0 57.7667 0C58.0964 0 58.5361 0.214286 58.756 0.642857C58.9758 0.964249 59.1957 1.28576 59.4155 1.71429C59.6353 2.03571 59.7452 2.46429 59.8552 2.89286C59.9651 3.21429 60.075 3.53571 60.075 3.75C60.075 3.82843 60.0897 3.93558 60.1084 4.07143C60.1408 4.30673 60.1849 4.62816 60.1849 5.03571C60.1849 5.28109 60.208 5.57143 60.233 5.88613C60.2626 6.25849 60.2948 6.66496 60.2948 7.07143C60.2948 7.38048 60.3203 7.71429 60.3466 8.06095C60.3751 8.4354 60.4048 8.82484 60.4048 9.21429C60.4048 9.56819 60.4381 9.88961 60.468 10.1786C60.4925 10.4145 60.5147 10.6288 60.5147 10.8214C60.534 11.0101 60.5534 11.2055 60.5734 11.4069C60.6667 12.3491 60.7733 13.4239 60.9544 14.5714C61.1991 15.6052 61.3833 16.639 61.5519 17.5852C61.6105 17.9138 61.6671 18.2319 61.7238 18.5357C61.9436 19.7143 62.1635 20.7857 62.3833 21.6429C62.4933 21.9643 62.6032 22.2857 62.6032 22.3929H62.7131C63.0429 22.2857 63.3726 22.2857 63.5925 22.2857C64.1421 22.2857 64.5818 22.7143 64.5818 23.25C64.5818 23.5714 64.4718 24 64.252 24.2143C64.181 24.3527 64.0642 24.4464 63.9311 24.5531C63.8582 24.6116 63.7803 24.6741 63.7024 24.75C63.6474 24.8036 63.565 24.8571 63.4825 24.9107C63.4001 24.9643 63.3177 25.0179 63.2627 25.0714C63.3194 25.1267 63.3469 25.2392 63.4207 25.5415C63.4898 25.8247 63.5996 26.2745 63.8123 27L64.6917 30C64.6917 30.2205 64.7952 30.4915 64.9311 30.8475C64.9933 31.0104 65.0623 31.1911 65.1313 31.3929C65.2228 31.6604 65.3334 31.928 65.4471 32.2033C65.6067 32.5894 65.7725 32.9907 65.9008 33.4286C66.1078 33.8994 66.2715 34.328 66.4191 34.7143C66.5066 34.9435 66.5884 35.1577 66.6702 35.3571C66.7632 35.7195 66.8365 35.9861 66.8901 36.1812ZM59.2021 23.2899C59.2334 23.2684 59.26 23.25 59.3056 23.25C59.3056 23.1429 59.1957 23.0357 58.9758 22.8215C58.8659 22.2858 58.756 21.75 58.5361 21.1071L58.0964 18.75C58.0466 18.3617 57.9743 17.9515 57.8998 17.5292C57.8099 17.0192 57.7169 16.4918 57.6568 15.9643C57.6568 15.4556 57.5879 14.8127 57.5047 14.0357C57.4828 13.8308 57.4599 13.6165 57.4369 13.3929L57.1072 10.2857V10.6071C56.9972 11.0357 56.9972 11.25 56.9972 11.3571V12.75C56.9972 12.8571 56.9972 12.9643 56.7774 13.8214C56.6675 14.3571 56.5575 15 56.4476 15.8571C56.3377 16.7143 56.2278 17.5714 56.0079 18.5357C55.9484 19.0581 55.8566 19.5491 55.7675 20.0256C55.6921 20.4287 55.6186 20.8215 55.5683 21.2143C55.4583 22.0714 55.3484 22.9286 55.2385 23.5714C55.1286 23.8929 55.1286 24.2143 55.1286 24.4286C55.2274 24.4286 55.304 24.4069 55.3884 24.3831C55.4917 24.3539 55.6066 24.3214 55.7881 24.3214C55.9049 24.293 56.0371 24.2645 56.1787 24.2341C56.5703 24.1498 57.0333 24.0502 57.4369 23.8929C57.6745 23.8002 57.912 23.7276 58.1407 23.6577C58.4411 23.5659 58.7262 23.4788 58.9758 23.3571C59.1046 23.3571 59.1579 23.3204 59.2021 23.2899Z" fill="white"/>
<path d="M36.8769 12.1669C36.9656 12.3601 37.0694 12.5863 37.2373 12.75C37.4572 12.9643 37.7869 13.0715 38.1167 13.0715C38.6663 13.0715 38.9961 12.8572 39.2159 12.4286C39.2709 12.3215 39.2983 12.2411 39.3258 12.1607C39.3533 12.0804 39.3808 12 39.4357 11.8929C39.5456 11.6251 39.6555 11.3038 39.7791 10.9424C39.9028 10.5808 40.0403 10.1786 40.2052 9.75003C40.37 9.32152 40.5074 8.89301 40.6448 8.46451C40.7822 8.036 40.9197 7.6071 41.0845 7.1786C41.3044 6.32145 41.5242 5.6786 41.7441 5.03574C41.8742 4.46513 41.9658 4.15714 42.0189 3.97856C42.0555 3.85537 42.0738 3.79377 42.0738 3.75003C42.0738 3.53574 41.9639 3.21431 41.6341 2.89288C41.3044 2.6786 41.0845 2.57145 40.6449 2.57145C39.8745 2.57145 39.3573 3.39365 39.093 3.81362C39.0557 3.87296 39.0233 3.92451 38.9961 3.96431C38.5564 4.71431 38.2266 5.46431 37.8969 6.4286C37.6642 7.03343 37.4862 7.69161 37.3243 8.2902L37.324 8.29143C37.2566 8.5407 37.192 8.77962 37.1274 9.00003C36.7976 10.1786 36.7976 10.5 36.7976 10.7143V11.3572C36.7244 11.4286 36.7488 11.5953 36.7732 11.7619C36.7854 11.8453 36.7976 11.9286 36.7976 12C36.8236 12.0506 36.8496 12.1072 36.8769 12.1669Z" fill="white"/>
<path d="M22.4238 26.3571C22.094 26.1428 21.5444 26.0357 20.5551 26.0357H19.346L16.8178 25.8214C16.398 25.7759 15.9583 25.7112 15.4989 25.6435C14.8758 25.5517 14.2162 25.4545 13.5202 25.3928C12.421 25.1785 11.3218 24.9643 10.3325 24.6428C9.34325 24.3214 8.5738 24 8.0242 23.5714C7.25476 23.1428 7.25476 22.7143 7.25476 22.6071C7.25476 22.2857 7.36468 21.75 7.80436 20.7857C8.24404 19.9286 8.68373 19.0714 9.34325 18.1071C10.0028 17.1428 10.6623 16.1785 11.3218 15.1071C11.9813 14.1429 12.6409 13.1785 13.1905 12.4285C13.3004 12.3214 13.3828 12.1875 13.4653 12.0536C13.5477 11.9196 13.6301 11.7857 13.7401 11.6785L14.3996 10.7143C14.3996 10.6607 14.4271 10.6071 14.4546 10.5535C14.482 10.5 14.5095 10.4464 14.5095 10.3928C14.5095 10.2857 14.537 10.2053 14.5645 10.125C14.592 10.0446 14.6194 9.96426 14.6194 9.85712C14.6194 9.3214 14.3996 8.78569 13.85 8.5714C12.8607 7.92855 12.0913 8.03569 10.9921 8.89283C10.5524 9.3214 10.1127 9.85712 9.78293 10.5C9.23333 11.3571 8.68374 12.3214 8.13415 13.2856L6.48531 16.1785C5.93571 17.1428 5.38611 18.1071 4.8365 19.1785C4.61666 19.6071 4.39682 20.0357 4.17698 20.3571C4.12202 20.1428 4.09454 19.9285 4.06706 19.7143C4.03958 19.5 4.0121 19.2857 3.95714 19.0714C3.84722 18.2143 3.7373 17.25 3.62738 16.1785C3.51746 15.1071 3.51746 14.0357 3.51746 13.0714V9.10712C3.51746 8.5714 3.40754 8.14283 3.1877 7.60712C2.85793 6.74997 2.30833 6.53569 1.86865 6.53569C0.879364 6.53569 0.549603 7.71426 0.439682 8.14283C0.109921 8.99997 0 10.0714 0 11.5714C0 13.3928 0 15 0.109921 16.2857C0.160782 16.8806 0.188109 17.4296 0.213681 17.9434C0.243375 18.54 0.270702 19.089 0.329762 19.6071C0.439682 20.4643 0.549603 21.2143 0.659523 21.75C0.769444 22.2857 0.879364 22.7143 0.989285 23.0357C1.42897 24.6428 1.86865 26.25 2.30833 27.6428C2.74801 28.9285 3.29762 30.3214 3.84722 31.6071C3.95714 31.8214 3.95714 32.0357 3.95714 32.25V34.3928C3.95714 34.9285 4.06706 35.4643 4.2869 35.8928C4.50674 36.4286 5.05635 36.75 5.71587 36.75C6.15555 36.75 7.03492 36.5357 7.25476 35.4643C7.58452 34.9285 7.69444 34.0714 7.69444 32.8928C7.69444 32.25 7.4746 31.3928 7.14484 30.4285C7.07974 30.2382 7.01464 30.0437 6.9487 29.8466C6.6806 29.0454 6.39852 28.2025 6.04563 27.4285C6.02446 27.3666 6.00329 27.3008 5.98134 27.2324C5.8893 26.946 5.78345 26.6166 5.60595 26.3571C6.15554 26.6785 6.81504 26.8928 7.47454 27.1071C8.90351 27.5357 10.4425 27.9643 12.0913 28.2857C13.6301 28.6071 15.169 28.8214 16.598 28.9285C16.9809 28.9573 17.3401 28.986 17.6735 29.0126C18.5844 29.0854 19.3029 29.1428 19.7857 29.1428C20.6651 29.1428 21.3246 29.0357 21.8742 28.8214C22.7536 28.3928 22.8635 27.8571 22.8635 27.4285C22.9632 26.8454 22.6107 26.5268 22.4623 26.3926C22.4526 26.3839 22.4439 26.376 22.4361 26.3688C22.4317 26.3647 22.4275 26.3608 22.4238 26.3571Z" fill="white"/>
<path d="M38.5151 24.1406C38.6424 24.093 38.7669 24.0465 38.8861 24C40.3151 23.3572 41.3044 23.3572 41.9639 24.75C42.2937 25.0715 42.4036 25.3929 42.4036 25.7143C42.4036 26.5715 41.9639 27.2143 41.0846 27.4286C40.6449 27.4286 40.2052 27.6429 39.5457 27.9643C39.0903 28.1123 38.635 28.3113 38.1435 28.5261C37.9231 28.6224 37.6954 28.7219 37.4572 28.8215C37.008 28.9466 36.5962 29.1082 36.2001 29.2637C35.9177 29.3745 35.6432 29.4823 35.3687 29.5715C34.5992 29.7857 34.0496 29.8929 33.5 29.8929C32.6207 29.8929 31.8512 29.7857 31.3016 29.4643C30.5322 29.0357 30.3123 28.3929 30.3123 27.9643C30.3123 27.3215 30.4223 26.6786 30.6421 26.25C30.6971 26.1429 30.752 26.0625 30.807 25.9822C30.8619 25.9018 30.9169 25.8215 30.9719 25.7143C30.8109 25.7143 30.7089 25.6569 30.5795 25.5841C30.5322 25.5574 30.4812 25.5287 30.4223 25.5C30.2922 25.4155 30.1621 25.3476 30.0388 25.2833C29.8495 25.1845 29.676 25.0941 29.5429 24.9643C29.1032 24.6429 28.9933 24.2143 28.9933 23.8929C28.9933 23.1429 29.3231 22.2857 30.0925 21.4286C30.8619 20.5715 31.6314 19.8215 32.5107 19.0715C33.3901 18.3215 34.2695 17.6786 35.0389 17.1429C35.7329 16.6694 36.1201 16.4521 36.339 16.3293C36.4669 16.2576 36.5373 16.2181 36.5778 16.1786C36.7114 16.1352 36.845 16.0742 36.9859 16.0099C37.1928 15.9154 37.4155 15.8138 37.677 15.75C38.2266 15.5357 38.5564 15.4286 38.7762 15.4286C39.5457 15.4286 39.9854 15.9643 39.9854 16.7143C39.9854 17.0357 39.9853 17.3572 39.8754 17.6786C39.6556 18.2143 39.3258 18.5357 38.7762 18.5357C38.5672 18.5357 38.4023 18.4927 38.2816 18.4612C38.2119 18.443 38.1569 18.4286 38.1167 18.4286L38.0068 18.3215C38.0068 18.3215 37.7869 18.3215 37.4572 18.5357C37.2502 18.603 37.0865 18.7125 36.9389 18.8112C36.8514 18.8697 36.7696 18.9244 36.6877 18.9643C36.5092 19.0803 36.3307 19.2277 36.1347 19.3895C35.9687 19.5266 35.7902 19.6741 35.5885 19.8215C35.3687 19.9822 35.1488 20.1697 34.929 20.3572C34.7092 20.5447 34.4893 20.7322 34.2695 20.8929C33.8298 21.3215 33.5 21.6429 33.1703 22.0715L32.9504 22.2857L33.61 21.8572C33.8298 21.6429 34.1596 21.4286 34.3794 21.3215C35.6984 20.6786 36.358 21.2143 36.6877 21.6429C36.9076 21.8572 37.0175 22.1786 37.0175 22.3929C37.0175 23.1429 36.6877 23.7857 36.0282 24.4286C35.68 24.8528 35.2629 25.1427 34.886 25.4046C34.787 25.4734 34.6907 25.5403 34.5992 25.6072V25.7143C34.8191 25.7143 35.0389 25.7143 35.4786 25.5C35.5821 25.4496 35.6917 25.3932 35.8074 25.3337C36.183 25.1404 36.6236 24.9137 37.1274 24.75C37.5578 24.4983 38.0555 24.3124 38.5151 24.1406Z" fill="white"/>
<path d="M33.9397 34.8214C33.5 34.8214 32.8405 34.9286 32.5107 36C32.4008 36.5357 32.2909 37.0714 32.181 37.3929C32.0711 38.1429 31.9612 38.8929 31.7413 39.6429C31.6314 40.0179 31.549 40.3929 31.4665 40.7679C31.3841 41.1429 31.3016 41.5179 31.1917 41.8929C31.0027 42.5378 30.8949 43.1828 30.7985 43.7596C30.7828 43.8536 30.7674 43.9457 30.752 44.0357C30.6421 44.7857 30.6421 45.4286 30.6421 45.9643V46.2857C30.6421 46.5 30.6421 46.7143 30.752 46.9286C30.7887 47 30.8253 47.0833 30.8619 47.1667C30.9352 47.3333 31.0085 47.5 31.0818 47.5714C31.1917 47.7857 31.5215 48 31.9612 48C32.4008 48 32.8405 47.8929 33.0604 47.6786C33.5 47.4643 33.7199 47.25 33.8298 46.8214C34.1053 45.8366 34.3041 44.8518 34.4903 43.9296L34.4907 43.9276C34.5272 43.7468 34.5632 43.5684 34.5992 43.3929C34.7092 42.9107 34.7916 42.4286 34.874 41.9465C34.9565 41.4643 35.0389 40.9821 35.1488 40.5C35.3687 39.5357 35.3687 38.6786 35.3687 38.0357C35.3687 37.6292 35.3364 37.2228 35.3068 36.8504C35.2818 36.5357 35.2588 36.2454 35.2588 36C35.1488 35.3571 34.7092 34.8214 33.9397 34.8214Z" fill="white"/>
</svg>
