<svg width="561" height="622" viewBox="0 0 561 622" fill="none" xmlns="http://www.w3.org/2000/svg">
<path fill-rule="evenodd" clip-rule="evenodd" d="M209.244 9.20222C245.258 -1.35108 285.335 -1.30897 321.954 4.03832C413.411 17.3932 491.532 71.6592 523.917 165.336C536.673 202.232 546.615 246.841 549.046 291.475C551.475 336.096 546.402 380.853 529.021 417.965C497.807 484.614 445.698 524.028 377.663 540.056C286.644 561.498 182.513 543.933 106.094 485.232C24.6667 422.684 -13.9869 330.259 5.45292 225.708C16.8333 164.502 55.7846 111.453 106.205 75.097C122.155 63.5965 139.266 53.7566 157.034 45.8524C158.478 44.441 159.893 43.0456 161.288 41.6697C175.604 27.5482 187.845 15.4732 209.244 9.20222ZM158.73 48.3785C196.571 31.6327 237.34 23.7881 276.038 27.4942C276.858 27.5727 277.587 26.9679 277.665 26.1432C277.743 25.3185 277.141 24.5862 276.321 24.5077C239.461 20.9776 200.829 27.7733 164.585 42.626C178.393 29.0289 190.008 17.9641 210.079 12.0824C245.552 1.68741 285.17 1.69843 321.525 7.00717C412.054 20.2266 489.133 73.8601 521.098 166.321C533.775 202.988 543.653 247.32 546.066 291.639C548.48 335.972 543.418 380.182 526.321 416.687C495.518 482.459 444.183 521.304 376.983 537.135C286.737 558.395 183.541 540.947 107.906 482.848C27.3284 420.953 -10.8367 329.643 8.38613 226.259C19.5973 165.963 58.0138 113.537 107.944 77.5349C122.726 66.8767 138.505 57.6666 154.869 50.1225C155.444 50.676 156.355 50.6799 156.935 50.1207C157.539 49.5365 158.138 48.9557 158.73 48.3785Z" fill="black"/>
<path fill-rule="evenodd" clip-rule="evenodd" d="M3.97085 538.682C3.97085 495.391 71.9085 464.754 146.723 464.754C249.891 464.754 377.953 478.984 377.953 538.682C377.953 599.827 252.393 620 146.723 620C68.4941 620 3.97085 583.949 3.97085 538.682Z" fill="white"/>
<path fill-rule="evenodd" clip-rule="evenodd" d="M46.7433 595.009C72.3908 609.532 107.817 618.5 146.723 618.5C199.493 618.5 257.146 613.46 301.558 600.827C323.772 594.508 342.561 586.32 355.768 575.999C368.946 565.7 376.461 553.372 376.461 538.682C376.461 524.392 368.83 512.715 355.467 503.168C342.072 493.598 323.051 486.279 300.672 480.788C255.935 469.811 198.268 466.254 146.723 466.254C109.495 466.254 74.0424 473.88 47.952 486.828C21.7836 499.816 5.46286 517.909 5.46286 538.682C5.46286 560.535 21.051 580.461 46.7433 595.009ZM45.2789 597.623C19.1523 582.829 2.47885 562.096 2.47885 538.682C2.47885 516.163 20.127 497.292 46.6311 484.138C73.2132 470.946 109.137 463.254 146.723 463.254C198.346 463.254 256.295 466.811 301.38 477.874C323.913 483.403 343.355 490.834 357.196 500.723C371.068 510.634 379.445 523.122 379.445 538.682C379.445 554.565 371.265 567.687 357.599 578.368C343.961 589.026 324.756 597.346 302.371 603.714C257.585 616.453 199.624 621.5 146.723 621.5C107.4 621.5 71.4503 612.442 45.2789 597.623Z" fill="black"/>
<path d="M116.519 560.25C116.519 560.94 116.039 561.526 115.079 562.009C114.187 562.423 112.986 562.63 111.477 562.63C110.174 562.63 108.116 562.492 105.304 562.216C102.56 561.94 99.6445 561.492 96.5576 560.871C93.4708 560.25 90.5211 559.491 87.7087 558.594C84.9648 557.628 82.9412 556.49 81.6379 555.179C81.7751 555.731 82.0152 556.49 82.3582 557.456C82.7012 558.353 83.0784 559.353 83.49 560.457C84.2446 562.389 84.9305 564.355 85.5479 566.356C86.2339 568.288 86.5769 569.841 86.5769 571.014C86.5769 573.222 86.4054 574.878 86.0624 575.982C85.788 577.155 85.1363 577.741 84.1074 577.741C83.2842 577.741 82.7012 577.396 82.3582 576.706C82.0152 576.016 81.8437 575.188 81.8437 574.222C81.8437 574.153 81.8437 573.981 81.8437 573.705C81.8437 573.429 81.878 572.635 81.9466 571.324C81.9466 570.772 81.9123 570.22 81.8437 569.668C81.7751 569.116 81.6722 568.633 81.535 568.219C80.4375 565.528 79.4085 562.837 78.4482 560.146C77.5564 557.387 76.699 554.351 75.8758 551.039C75.67 550.349 75.4299 549.486 75.1556 548.451C74.9498 547.347 74.744 545.933 74.5382 544.208C74.3324 542.414 74.1609 540.24 74.0237 537.688C73.8865 535.066 73.8179 531.892 73.8179 528.166C73.8179 525.268 74.058 523.06 74.5382 521.542C75.0184 519.955 75.6014 519.161 76.2874 519.161C76.9048 519.161 77.4192 519.644 77.8308 520.61C78.2424 521.507 78.4482 522.37 78.4482 523.198C78.4482 525.475 78.4139 527.234 78.3453 528.476C78.3453 529.718 78.3453 530.615 78.3453 531.167C78.3453 533.306 78.4482 535.445 78.654 537.584C78.8598 539.654 79.0999 541.586 79.3742 543.38C79.6486 545.45 79.9916 547.416 80.4032 549.279C81.2263 547.554 82.1181 545.726 83.0784 543.794C84.1074 541.793 85.1706 539.826 86.2682 537.895C87.3657 535.894 88.4633 533.927 89.5608 531.995C90.6583 530.063 91.7216 528.235 92.7505 526.51C93.4365 525.337 94.1911 524.336 95.0142 523.508C95.906 522.68 96.7291 522.266 97.4837 522.266C98.0325 522.266 98.6498 522.508 99.3358 522.991C100.022 523.405 100.365 523.991 100.365 524.75C100.365 524.957 100.33 525.199 100.262 525.475C100.193 525.682 100.125 525.854 100.056 525.992C99.7131 526.544 99.3015 527.096 98.8213 527.648C98.4097 528.2 98.0325 528.752 97.6895 529.304C96.5919 530.891 95.3572 532.685 93.9853 534.686C92.6133 536.687 91.31 538.688 90.0753 540.689C88.9091 542.621 87.9145 544.449 87.0913 546.174C86.2682 547.899 85.8566 549.279 85.8566 550.314C85.8566 551.418 86.5083 552.384 87.8116 553.212C89.1149 554.04 90.7269 554.765 92.6476 555.386C94.5683 555.938 96.6605 556.421 98.9242 556.835C101.256 557.18 103.417 557.49 105.407 557.766C107.396 557.973 109.076 558.146 110.448 558.284C111.889 558.353 112.678 558.387 112.815 558.387C114.393 558.387 115.387 558.525 115.799 558.801C116.279 559.008 116.519 559.491 116.519 560.25Z" fill="black"/>
<path d="M128.02 526.613C128.02 526.751 127.78 527.027 127.3 527.441C126.82 527.855 126.237 528.304 125.551 528.787C124.933 529.201 124.282 529.58 123.596 529.925C122.91 530.27 122.361 530.443 121.949 530.443C121.675 530.443 121.298 530.443 120.817 530.443C120.406 530.374 119.96 530.236 119.48 530.029C119.068 529.822 118.691 529.546 118.348 529.201C118.005 528.787 117.833 528.269 117.833 527.648C117.833 526.682 118.176 525.785 118.862 524.957C119.548 524.06 120.44 523.612 121.538 523.612C121.743 523.612 122.189 523.715 122.875 523.922C123.63 524.06 124.384 524.267 125.139 524.543C125.894 524.819 126.545 525.13 127.094 525.475C127.711 525.82 128.02 526.199 128.02 526.613ZM131.416 565.321C131.416 565.804 131.038 566.218 130.284 566.563C129.598 566.908 129.083 567.081 128.74 567.081C128.054 567.081 127.437 566.632 126.888 565.735C126.339 564.838 125.859 563.803 125.448 562.63C125.036 561.457 124.693 560.353 124.419 559.319C124.144 558.215 123.939 557.456 123.801 557.042C123.596 556.352 123.321 555.524 122.978 554.558C122.635 553.592 122.292 552.66 121.949 551.763C121.675 550.866 121.435 550.073 121.229 549.383C121.023 548.693 120.92 548.313 120.92 548.244C120.92 547.278 121.092 546.381 121.435 545.553C121.846 544.725 122.327 544.311 122.875 544.311C123.493 544.311 124.144 544.794 124.83 545.76C125.516 546.726 126.168 547.968 126.785 549.486C127.471 550.935 128.089 552.557 128.637 554.351C129.186 556.076 129.666 557.732 130.078 559.319C130.49 560.836 130.798 562.182 131.004 563.355C131.278 564.459 131.416 565.114 131.416 565.321Z" fill="black"/>
<path d="M161.077 560.56C161.077 561.733 160.666 562.768 159.843 563.665C159.088 564.493 158.093 565.218 156.859 565.839C155.693 566.391 154.389 566.839 152.949 567.184C151.508 567.529 150.136 567.805 148.833 568.012C147.53 568.15 146.363 568.254 145.334 568.323C144.374 568.323 143.757 568.323 143.482 568.323C141.973 568.323 140.807 568.081 139.984 567.598C139.161 567.115 138.749 566.253 138.749 565.011C138.749 564.597 138.784 564.252 138.852 563.976C138.921 563.631 139.195 563.458 139.675 563.458C139.881 563.458 140.224 563.527 140.704 563.665C141.184 563.734 141.562 563.769 141.836 563.769C142.11 563.769 142.968 563.734 144.408 563.665C145.918 563.527 147.495 563.32 149.142 563.044C150.856 562.768 152.366 562.389 153.669 561.906C155.041 561.354 155.727 560.664 155.727 559.836C155.727 559.698 155.007 559.284 153.566 558.594C152.194 557.835 150.102 556.593 147.289 554.868C145.094 553.488 143.551 552.108 142.659 550.728C141.767 549.279 141.322 547.347 141.322 544.932C141.322 543.414 141.63 542.172 142.248 541.206C142.934 540.24 143.825 539.481 144.923 538.929C146.089 538.377 147.392 537.998 148.833 537.791C150.342 537.515 151.92 537.377 153.566 537.377C153.703 537.377 154.115 537.446 154.801 537.584C155.555 537.722 156.344 537.964 157.167 538.308C157.991 538.584 158.711 538.964 159.328 539.447C160.014 539.861 160.357 540.344 160.357 540.896C160.357 541.034 160.22 541.241 159.946 541.517C159.74 541.793 159.362 542.31 158.814 543.069C158.608 543 158.231 542.897 157.682 542.759C157.202 542.621 156.619 542.483 155.933 542.345C155.315 542.138 154.664 542 153.978 541.931C153.292 541.793 152.743 541.724 152.331 541.724C150.548 541.724 149.107 542.069 148.01 542.759C146.912 543.38 146.363 544.622 146.363 546.485C146.363 547.382 146.706 548.21 147.392 548.969C148.147 549.728 149.073 550.452 150.171 551.142C151.268 551.763 152.434 552.419 153.669 553.109C154.972 553.73 156.173 554.42 157.27 555.179C158.368 555.938 159.26 556.766 159.946 557.663C160.7 558.491 161.077 559.457 161.077 560.56Z" fill="black"/>
<path d="M202.806 555.075C203.149 555.42 203.32 555.627 203.32 555.696C203.32 555.834 203.115 556.248 202.703 556.938C202.36 557.628 201.88 558.353 201.262 559.112C200.645 559.87 199.959 560.56 199.205 561.181C198.519 561.733 197.833 562.009 197.147 562.009C195.706 562.009 194.54 561.733 193.648 561.181C192.757 560.56 192.002 559.801 191.385 558.905C190.836 558.008 190.39 557.042 190.047 556.007C189.773 554.903 189.533 553.868 189.327 552.902C189.19 552.419 189.052 552.177 188.915 552.177C188.709 552.177 188.298 552.936 187.68 554.454C187.063 555.903 186.377 557.525 185.623 559.319C184.937 561.043 184.251 562.665 183.565 564.183C182.947 565.632 182.536 566.356 182.33 566.356C181.095 566.356 180.032 565.839 179.14 564.804C178.317 563.7 177.631 562.458 177.082 561.078C176.602 559.629 176.225 558.18 175.95 556.731C175.676 555.213 175.505 554.04 175.436 553.212C175.23 551.349 174.784 548.244 174.098 543.897C173.412 539.55 172.829 534.272 172.349 528.062C172.212 526.751 172.04 525.578 171.835 524.543C171.697 523.439 171.526 522.232 171.32 520.921C171.114 519.61 170.943 518.126 170.806 516.471C170.669 514.815 170.6 512.779 170.6 510.364C170.6 510.226 170.634 509.778 170.703 509.019C170.771 508.26 170.874 507.432 171.011 506.535C171.149 505.638 171.354 504.844 171.629 504.154C171.972 503.464 172.349 503.119 172.761 503.119C173.241 503.119 173.687 503.43 174.098 504.051C174.51 504.603 174.853 505.258 175.127 506.017C175.47 506.776 175.71 507.501 175.848 508.191C175.985 508.881 176.053 509.364 176.053 509.64C176.053 510.675 175.985 511.641 175.848 512.538C175.71 513.435 175.642 514.263 175.642 515.022C175.642 516.057 175.71 517.367 175.848 518.954C176.053 520.541 176.293 522.163 176.568 523.819C176.842 525.475 177.082 527.096 177.288 528.683C177.494 530.201 177.665 531.443 177.803 532.409C177.803 532.478 177.871 532.961 178.008 533.858C178.146 534.755 178.283 535.894 178.42 537.274C178.626 538.584 178.797 540.033 178.934 541.62C179.14 543.138 179.346 544.656 179.552 546.174C179.758 547.623 179.929 548.934 180.066 550.107C180.272 551.211 180.409 552.005 180.478 552.488C180.478 552.695 180.512 553.005 180.581 553.419C180.718 553.764 180.821 554.178 180.889 554.661C181.027 555.144 181.164 555.593 181.301 556.007C181.438 556.421 181.61 556.731 181.815 556.938C182.227 556.11 182.741 554.834 183.359 553.109C184.045 551.384 184.731 549.624 185.417 547.83C186.171 546.036 186.857 544.484 187.475 543.173C188.161 541.793 188.744 541.103 189.224 541.103C189.773 541.103 190.218 541.206 190.561 541.413C190.904 541.62 191.35 541.793 191.899 541.931C192.585 542.207 192.928 542.586 192.928 543.069C192.928 543.483 192.997 544.001 193.134 544.622C193.271 545.45 193.477 546.554 193.751 547.934C194.094 549.245 194.471 550.556 194.883 551.867C195.295 553.109 195.775 554.178 196.324 555.075C196.872 555.972 197.421 556.421 197.97 556.421C198.244 556.421 198.622 556.076 199.102 555.386C199.582 554.627 200.234 554.213 201.057 554.144C201.194 554.144 201.434 554.247 201.777 554.454C202.12 554.592 202.463 554.799 202.806 555.075Z" fill="black"/>
<path d="M245.897 563.148C245.897 563.7 245.828 564.114 245.691 564.39C245.554 564.597 245.211 564.769 244.662 564.907C244.045 565.114 243.256 565.356 242.296 565.632C241.404 565.839 240.409 566.08 239.312 566.356C238.214 566.563 237.082 566.77 235.916 566.977C234.819 567.115 233.79 567.184 232.829 567.184C231.663 567.184 230.36 567.115 228.919 566.977C227.547 566.839 226.21 566.632 224.907 566.356C223.603 566.011 222.403 565.666 221.305 565.321C220.276 564.907 219.522 564.424 219.042 563.872C219.385 565.321 219.693 566.77 219.968 568.219C220.242 569.668 220.448 571.117 220.585 572.566C220.585 572.911 220.482 573.222 220.276 573.498C220.139 573.705 219.693 573.808 218.939 573.808C218.596 573.808 218.253 573.739 217.91 573.601C217.635 573.394 217.395 573.015 217.189 572.463C216.572 571.083 216.058 569.806 215.646 568.633C215.234 567.391 214.857 566.149 214.514 564.907C214.24 563.665 213.931 562.354 213.588 560.974C213.245 559.594 212.834 558.077 212.353 556.421C211.599 553.73 210.81 550.866 209.987 547.83C209.164 544.725 208.409 541.793 207.723 539.033C207.037 536.204 206.488 533.72 206.077 531.581C205.665 529.373 205.459 527.821 205.459 526.924C205.459 526.51 205.459 525.958 205.459 525.268C205.528 524.578 205.631 523.922 205.768 523.301C205.974 522.611 206.214 522.059 206.488 521.645C206.831 521.162 207.277 520.921 207.826 520.921C208.169 520.921 208.512 521.473 208.855 522.577C209.267 523.612 209.61 524.785 209.884 526.096C210.227 527.338 210.501 528.545 210.707 529.718C210.981 530.822 211.119 531.409 211.119 531.478C211.393 532.996 211.702 534.686 212.045 536.549C212.456 538.343 212.868 540.171 213.279 542.034C213.691 543.897 214.137 545.691 214.617 547.416C215.097 549.072 215.612 550.487 216.16 551.66C216.229 550.97 216.469 549.969 216.881 548.658C217.292 547.347 217.841 545.933 218.527 544.415C219.213 542.897 219.968 541.344 220.791 539.757C221.683 538.101 222.574 536.618 223.466 535.307C224.426 533.996 225.352 532.927 226.244 532.099C227.205 531.271 228.096 530.857 228.919 530.857C230.223 530.857 231.115 531.029 231.595 531.374C232.143 531.719 232.418 532.133 232.418 532.616C232.418 533.03 231.835 533.858 230.669 535.1C229.502 536.273 228.199 537.86 226.759 539.861C225.318 541.793 224.015 544.104 222.849 546.795C221.683 549.417 221.099 552.35 221.099 555.593C221.099 556.766 221.408 557.801 222.025 558.698C222.711 559.525 223.569 560.215 224.598 560.767C225.695 561.319 226.896 561.768 228.199 562.113C229.571 562.389 230.909 562.527 232.212 562.527C233.378 562.527 234.647 562.492 236.019 562.423C237.391 562.354 238.66 562.285 239.826 562.216C241.061 562.078 242.09 561.975 242.913 561.906C243.805 561.837 244.354 561.802 244.559 561.802C244.902 561.802 245.211 561.906 245.485 562.113C245.76 562.32 245.897 562.665 245.897 563.148Z" fill="black"/>
<path d="M299.241 552.695C299.241 553.937 298.658 555.489 297.492 557.352C296.395 559.146 294.886 560.905 292.965 562.63C291.044 564.355 288.815 565.839 286.277 567.081C283.739 568.254 281.098 568.84 278.354 568.84C277.119 568.84 275.816 568.633 274.444 568.219C273.072 567.805 271.734 567.219 270.431 566.46C269.128 565.632 267.961 564.666 266.933 563.562C265.904 562.389 265.149 561.078 264.669 559.629C264.257 560.043 263.743 560.733 263.125 561.699C262.577 562.665 261.959 563.665 261.273 564.7C260.587 565.666 259.833 566.529 259.01 567.288C258.186 567.978 257.329 568.323 256.437 568.323C255.546 568.323 254.791 567.874 254.174 566.977C253.625 566.011 253.179 564.976 252.836 563.872C252.493 562.699 252.253 561.595 252.116 560.56C251.979 559.526 251.91 558.939 251.91 558.801C251.91 557.973 252.15 556.421 252.63 554.144C253.11 551.798 253.831 549.383 254.791 546.899C255.751 544.415 256.952 542.207 258.392 540.275C259.901 538.343 261.651 537.377 263.64 537.377C264.394 537.377 264.875 537.722 265.08 538.412C265.355 539.033 265.492 539.654 265.492 540.275V543.38C265.835 543.656 266.178 543.863 266.521 544.001C266.933 544.07 267.276 544.208 267.55 544.415C267.893 544.553 268.133 544.794 268.27 545.139C268.476 545.484 268.579 546.036 268.579 546.795C268.579 547.278 268.545 547.727 268.476 548.141C268.407 548.486 268.373 548.831 268.373 549.176C268.373 550.97 268.51 552.729 268.785 554.454C269.059 556.179 269.608 557.732 270.431 559.112C271.254 560.422 272.386 561.526 273.826 562.423C275.267 563.251 277.188 563.665 279.589 563.665C282.607 563.665 285.145 563.044 287.203 561.802C289.329 560.491 291.078 559.077 292.45 557.559C293.891 555.972 295.023 554.558 295.846 553.316C296.669 552.005 297.355 551.349 297.904 551.349C298.796 551.349 299.241 551.798 299.241 552.695ZM263.125 548.141C263.125 547.865 263.057 547.623 262.92 547.416C262.782 547.14 262.714 546.899 262.714 546.692C262.714 546.416 262.782 546.174 262.92 545.967C263.057 545.76 263.125 545.484 263.125 545.139C263.125 544.932 263.057 544.794 262.92 544.725C262.782 544.587 262.714 544.449 262.714 544.311C262.096 544.449 261.445 545.036 260.759 546.071C260.141 547.106 259.524 548.313 258.907 549.693C258.358 551.073 257.912 552.488 257.569 553.937C257.226 555.317 257.055 556.455 257.055 557.352C257.055 557.835 257.192 558.629 257.466 559.732C257.741 560.836 258.049 561.561 258.392 561.906C259.558 559.491 260.622 557.145 261.582 554.868C262.611 552.591 263.125 550.349 263.125 548.141Z" fill="black"/>
<path fill-rule="evenodd" clip-rule="evenodd" d="M487.605 463.622C488.387 463.869 489.889 464.526 490.736 465.141C491.241 465.508 491.722 465.904 492.179 466.323C501.705 471.24 511.569 475.692 521.799 478.454C527.756 480.062 534.821 481.752 541.428 481.698C548.015 481.644 553.9 479.862 557.83 474.78C558.336 474.126 559.273 474.008 559.923 474.516C560.574 475.025 560.691 475.967 560.186 476.621C555.476 482.711 548.523 484.64 541.452 484.698C534.401 484.756 526.988 482.961 521.025 481.351C516.439 480.113 511.936 478.548 507.52 476.766C523.499 491.029 529.744 514.114 523.393 535.834C516.858 558.18 499.846 573.541 479.506 582.494C459.177 591.443 435.391 594.059 414.989 590.853C391.472 587.157 367.645 576.189 346.615 565.612C345.878 565.241 345.579 564.34 345.948 563.599C346.317 562.858 347.213 562.558 347.95 562.929C368.978 573.504 392.437 584.272 415.45 587.889C435.314 591.011 458.522 588.456 478.309 579.746C498.084 571.042 514.31 556.258 520.53 534.987C527.515 511.098 518.476 485.675 497.867 473.385C500.569 477.65 501.771 483.213 502.263 488.715C502.872 495.527 502.417 502.599 502.088 507.734L502.069 508.029C502.004 509.041 501.763 511.02 501.522 512.096C501.47 512.33 501.385 512.684 501.245 512.967C501.206 513.047 501.129 513.19 501.003 513.337C500.901 513.457 500.594 513.784 500.064 513.866C499.42 513.965 498.948 513.643 498.715 513.394C498.514 513.178 498.421 512.954 498.383 512.856C498.247 512.503 498.212 512.053 498.191 511.728C498.166 511.322 498.153 510.782 498.153 510.089C498.153 507.905 498.2 505.719 498.246 503.54C498.399 496.269 498.552 489.069 496.982 482.23C496.211 478.869 495.047 475.378 493.285 472.442C493.203 472.377 493.084 472.289 492.921 472.175C492.633 471.973 492.274 471.738 491.874 471.483C491.534 471.266 491.102 470.996 490.672 470.728C490.21 470.44 489.753 470.154 489.418 469.94C489.055 469.707 488.712 469.48 488.451 469.287C488.326 469.195 488.18 469.081 488.053 468.96C487.992 468.901 487.894 468.803 487.801 468.673L487.799 468.67C487.744 468.593 487.492 468.241 487.498 467.727C487.499 467.584 487.521 467.437 487.566 467.291C487.124 467.055 486.773 466.858 486.504 466.696C486.251 466.543 485.962 466.358 485.754 466.159C485.696 466.104 485.595 466.001 485.5 465.857C485.433 465.755 485.201 465.39 485.244 464.871C485.301 464.174 485.776 463.769 486.134 463.607C486.422 463.477 486.678 463.47 486.77 463.469C486.985 463.466 487.173 463.507 487.263 463.527C487.379 463.553 487.496 463.587 487.605 463.622ZM486.604 466.453C486.605 466.453 486.606 466.454 486.608 466.454C486.594 466.451 486.592 466.45 486.604 466.453Z" fill="black"/>
</svg>
