<svg width="106" height="22" viewBox="0 0 106 22" fill="none" xmlns="http://www.w3.org/2000/svg">
<path fill-rule="evenodd" clip-rule="evenodd" d="M16.932 4.24287C11.6292 5.39363 6.78384 8.44277 2.75037 14.5686C2.29788 15.2559 1.37005 15.4487 0.678003 14.9994C-0.0140438 14.55 -0.208241 13.6287 0.244251 12.9414C4.67709 6.20902 10.1708 2.66653 16.2928 1.33799C22.3504 0.0234324 28.8814 0.906943 35.3916 2.73204C41.9053 4.55816 48.5492 7.37316 54.8415 10.0421L54.8774 10.0573C61.2056 12.7415 67.147 15.2616 72.4344 16.6282C78.6154 18.2257 84.3606 19.2095 89.5487 18.5054C94.6525 17.8126 99.2962 15.4755 103.31 10.2214C103.81 9.56727 104.749 9.43927 105.408 9.93553C106.066 10.4318 106.195 11.3644 105.696 12.0185C101.195 17.9095 95.8351 20.6532 89.9542 21.4514C84.1575 22.2381 77.9371 21.1229 71.6802 19.5057C66.1754 18.083 60.0639 15.4906 53.849 12.8544L53.6653 12.7765C47.3378 10.0927 40.8736 7.35857 34.578 5.59362C28.2788 3.82766 22.2993 3.07813 16.932 4.24287Z" fill="black"/>
</svg>
