<svg width="560" height="50" viewBox="0 0 560 50" fill="none" xmlns="http://www.w3.org/2000/svg">
<path fill-rule="evenodd" clip-rule="evenodd" d="M253.212 7.52555C252.759 7.84178 252.266 8.1574 251.801 8.35282C227.222 18.6804 198.232 19.9938 168.65 18.9014C166.308 18.8149 163.978 18.7274 161.658 18.6403C117.572 16.9854 77.204 15.47 33.7555 23.6241C26.083 25.0641 19.5154 26.3997 14.3684 28.5448C9.26634 30.6712 5.74741 33.5166 3.94577 37.8808C3.75328 38.3471 3.58231 39.2323 3.4583 40.4298C3.33912 41.5807 3.27664 42.8679 3.23684 44.0438C3.2198 44.5473 3.20662 45.0462 3.1946 45.5013C3.17954 46.0713 3.1663 46.5724 3.14957 46.9275C3.1417 47.0946 3.13209 47.2547 3.11909 47.3926L3.1185 47.3988C3.11002 47.489 3.08804 47.723 3.01406 47.9444C2.99202 48.0103 2.9418 48.1494 2.84293 48.3034C2.76508 48.4246 2.50539 48.7964 1.98063 48.9441C1.34629 49.1226 0.843747 48.8459 0.603344 48.6415C0.392105 48.462 0.282214 48.2677 0.242527 48.1942C0.109241 47.9474 0.0526712 47.6703 0.0340934 47.5793C0.0331691 47.5747 0.0323389 47.5707 0.0315979 47.5671C-0.0429413 47.207 0.0176904 46.8502 0.178759 46.55C0.189984 46.2506 0.199348 45.891 0.210108 45.4777C0.221849 45.0268 0.235253 44.5121 0.254553 43.9418C0.295043 42.7454 0.360238 41.3754 0.490331 40.1191C0.615601 38.9094 0.8155 37.6372 1.1897 36.7308C3.39995 31.3768 7.69509 28.0785 13.2256 25.7735C18.7112 23.4873 25.5946 22.1039 33.208 20.6751C76.9927 12.4578 117.668 13.9857 161.68 15.639C164.03 15.7272 166.39 15.8159 168.76 15.9034C198.265 16.993 226.702 15.647 250.65 5.58484C250.808 5.51865 251.085 5.35797 251.509 5.06173C251.916 4.77737 252.383 4.42272 252.911 4.0174C252.983 3.96257 253.055 3.90687 253.129 3.85041C254.115 3.09283 255.277 2.20062 256.425 1.48437C257.604 0.748856 259.042 0.0172131 260.431 0.000299661C261.185 -0.00888255 261.966 0.19199 262.641 0.736379C263.299 1.26631 263.726 2.01625 263.991 2.87087C265.486 7.68513 269.203 11.0282 277.37 13.7668C298.212 20.7556 321.718 22.9032 346.059 22.8713C366.089 22.8451 386.603 21.3455 406.61 19.8829C410.923 19.5677 415.211 19.2541 419.467 18.9575C427.794 18.3769 437.768 17.2173 448.522 15.9669C457.527 14.9199 467.079 13.8093 476.671 12.9216C497.545 10.9898 518.469 10.1342 533.256 13.5597C535.887 14.1691 540.714 16.0099 545.02 18.0474C547.184 19.0718 549.268 20.17 550.917 21.2196C551.739 21.7435 552.482 22.2734 553.081 22.7934C553.649 23.2874 554.214 23.8792 554.523 24.5496C554.886 25.3365 555.646 26.4792 556.551 27.7667C556.776 28.0854 557.008 28.4122 557.241 28.7396C557.902 29.6686 558.566 30.6015 559.047 31.3612C559.362 31.8598 559.677 32.4034 559.847 32.8848C559.922 33.0981 560.049 33.5116 559.98 33.9797C559.94 34.246 559.83 34.5758 559.569 34.8695C559.305 35.1677 558.98 35.3232 558.692 35.3921C558.194 35.5115 557.736 35.3916 557.489 35.3138C557.191 35.2202 556.874 35.078 556.551 34.9112C555.9 34.5753 555.054 34.0521 553.989 33.329C553.306 32.8656 553.126 31.9332 553.587 31.2466C553.887 30.7988 554.386 30.566 554.886 30.5868C554.879 30.5764 554.871 30.5659 554.864 30.5554C554.62 30.2128 554.369 29.8594 554.115 29.4988C553.238 28.2526 552.313 26.8884 551.816 25.8113C551.779 25.7304 551.606 25.4772 551.13 25.0631C550.683 24.675 550.073 24.2336 549.32 23.754C547.816 22.7964 545.854 21.7579 543.749 20.7617C539.515 18.7579 534.911 17.0216 532.586 16.4831C518.323 13.179 497.846 13.9747 476.945 15.909C467.539 16.7795 458.017 17.885 448.996 18.9323C438.137 20.193 428.004 21.3695 419.673 21.9503C415.44 22.2454 411.167 22.5579 406.864 22.8725C386.853 24.3356 366.21 25.8449 346.063 25.8713C321.578 25.9034 297.706 23.7485 276.426 16.6126C267.833 13.7312 263.048 9.89881 261.143 3.76498C260.996 3.29158 260.837 3.12689 260.775 3.07708C260.731 3.04173 260.659 2.99774 260.467 3.00008C259.965 3.0062 259.137 3.32308 257.998 4.0335C256.979 4.66955 255.926 5.47739 254.913 6.2551L254.721 6.4024C254.199 6.80341 253.681 7.19743 253.212 7.52555ZM558.416 32.4602C558.416 32.4602 558.406 32.4585 558.391 32.454C558.409 32.4574 558.418 32.4602 558.416 32.4602ZM0.141946 47.1648C0.141946 47.1648 0.14252 47.1593 0.144092 47.15C0.142804 47.1604 0.141946 47.1648 0.141946 47.1648ZM2.96069 46.9911C2.96548 47.0074 2.96753 47.0174 2.96753 47.0174C2.96753 47.0174 2.96503 47.01 2.96069 46.9911Z" fill="black"/>
</svg>
