<svg width="560" height="52" viewBox="0 0 560 52" fill="none" xmlns="http://www.w3.org/2000/svg">
<path fill-rule="evenodd" clip-rule="evenodd" d="M0.0118357 1.31364C0.114195 0.491633 0.859994 -0.0913146 1.67762 0.0115933C2.39368 0.101717 2.87758 0.541929 3.15436 0.868751C3.44361 1.21031 3.66832 1.61746 3.84638 1.9958C4.20386 2.75536 4.51817 3.71985 4.79986 4.61587C4.85299 4.78487 4.90521 4.95228 4.95679 5.11763C5.19205 5.87184 5.41402 6.58342 5.64849 7.2097C5.95729 8.03448 6.18913 8.42321 6.2996 8.53445C8.58775 10.8384 11.0022 13.0038 13.4513 15.1994L13.4767 15.2222C15.9069 17.4008 18.3713 19.61 20.7102 21.965C24.9189 26.2028 31.2839 28.9858 38.2188 30.7482C45.1251 32.5034 52.4296 33.2051 58.349 33.3973C87.9012 34.3572 117.561 33.2179 147.136 31.8393C173.912 30.5911 200.898 30.0046 227.723 29.4216C231.106 29.3481 234.487 29.2746 237.864 29.1999C238.514 29.1855 239.16 29.1706 239.802 29.1559C253.981 28.8302 266.289 28.5475 279.789 34.1081C281.17 34.6773 282.55 35.1759 283.945 35.6798C284.151 35.7542 284.358 35.8287 284.564 35.9036C286.156 36.4802 287.764 37.0764 289.32 37.782C292.454 39.2028 295.439 41.0922 297.908 44.2893C298.566 45.1413 298.978 46.1447 299.294 46.9131C299.361 47.0772 299.424 47.2306 299.484 47.3694C299.57 47.5691 299.655 47.754 299.741 47.9255C299.817 47.7534 299.893 47.5783 299.969 47.4027C300.077 47.1541 300.186 46.903 300.289 46.6712C300.471 46.2629 300.704 45.7519 300.921 45.4356C304.181 40.6945 308.757 37.8803 313.618 35.9025C317.049 34.5061 320.747 33.4853 324.261 32.5152C325.66 32.1289 327.03 31.7505 328.343 31.3598C343.957 26.7117 361.161 23.7248 377.304 21.8347C395.341 19.723 413.479 19.2681 431.559 19.4264C440.503 19.5047 449.335 20.6215 458.084 21.8592C459.382 22.0428 460.678 22.229 461.972 22.415C469.427 23.4864 476.827 24.5498 484.289 25.0659C489.146 25.402 493.934 25.8881 498.692 26.3713C507.053 27.2204 515.324 28.0603 523.726 28.0603C529.279 28.0603 535.728 27.6059 540.026 24.6102C545.122 21.0576 550.282 17.2817 552.349 11.9845C552.517 11.5551 553.077 10.5274 553.669 9.4613C554.08 8.72174 554.55 7.88642 555.008 7.07253C555.247 6.6473 555.483 6.22792 555.706 5.83109C555.92 5.45027 556.118 5.09461 556.296 4.77461C556.288 4.47666 556.368 4.1735 556.545 3.90653C556.881 3.40001 557.148 3.01034 557.318 2.81237C557.346 2.77978 557.39 2.73025 557.445 2.6771L557.448 2.67461C557.481 2.64276 557.621 2.50682 557.835 2.40053C557.937 2.34983 558.225 2.21731 558.617 2.2474C559.126 2.28649 559.563 2.57977 559.802 3.00079C559.987 3.32522 559.999 3.62623 560 3.73472C560.002 3.87127 559.984 3.97987 559.974 4.03736C559.94 4.22124 559.875 4.37586 559.857 4.41744L559.855 4.42195C559.826 4.49292 559.792 4.56528 559.76 4.63105C559.526 5.11755 558.947 6.16079 558.305 7.30446C558.079 7.70845 557.841 8.13058 557.602 8.55618C557.146 9.36654 556.683 10.1895 556.275 10.9237C555.965 11.4826 555.691 11.9807 555.483 12.3741C555.378 12.5711 555.293 12.7357 555.228 12.8652C555.206 12.9094 555.188 12.9477 555.172 12.9803C555.165 12.9952 555.159 13.0089 555.153 13.0214C555.133 13.0639 555.127 13.0812 555.127 13.08C552.673 19.3693 546.672 23.628 541.726 27.0756C536.57 30.6693 529.212 31.0603 523.726 31.0603C515.198 31.0603 506.634 30.1931 498.154 29.3345C493.431 28.8562 488.734 28.3806 484.084 28.0589C476.503 27.5345 468.982 26.4533 461.53 25.3821C460.241 25.1968 458.954 25.0118 457.669 24.83C448.929 23.5936 440.266 22.5028 431.533 22.4263C413.514 22.2685 395.513 22.7231 377.649 24.8146C361.606 26.6929 344.584 29.6537 329.19 34.2363C327.754 34.6637 326.311 35.062 324.871 35.4594C321.425 36.4106 317.998 37.3564 314.737 38.6834C310.176 40.5395 306.183 43.0594 303.376 47.1415C303.377 47.1407 303.376 47.1413 303.375 47.1436C303.368 47.1559 303.332 47.2159 303.266 47.3515C303.194 47.4959 303.11 47.6795 303.013 47.8972C302.916 48.1138 302.813 48.3511 302.704 48.6028L302.697 48.6181C302.591 48.8627 302.48 49.1194 302.369 49.3695C302.149 49.8651 301.903 50.3958 301.675 50.7949C301.57 50.9776 301.412 51.235 301.209 51.4491C301.116 51.5471 300.908 51.7511 300.589 51.8813C300.196 52.0422 299.606 52.086 299.077 51.7056C297.795 50.7834 297.182 49.572 296.747 48.5645C296.644 48.3266 296.553 48.1071 296.468 47.9027C296.164 47.1707 295.94 46.6319 295.552 46.1294C293.477 43.4435 290.954 41.8134 288.094 40.5169C286.653 39.8638 285.142 39.3019 283.552 38.7258C283.35 38.6525 283.146 38.5788 282.941 38.5048C281.551 38.0026 280.104 37.4802 278.657 36.8842C265.747 31.5661 254.011 31.8333 239.693 32.1594C239.11 32.1727 238.522 32.186 237.93 32.1991C234.551 32.2739 231.17 32.3474 227.787 32.4209C200.958 33.004 174.011 33.5897 147.275 34.836C117.695 36.2149 87.9329 37.3598 58.2526 36.3958C52.2019 36.1992 44.669 35.4818 37.4875 33.6567C30.3346 31.8389 23.3614 28.8804 18.5985 24.0847C16.3228 21.7934 13.9147 19.6343 11.4653 17.4385L11.4593 17.433C9.0226 15.2486 6.54535 13.0278 4.18798 10.6542C3.57146 10.0334 3.15568 9.06758 2.85576 8.26651C2.58874 7.55329 2.33563 6.74121 2.1 5.98521C2.05075 5.82721 2.00226 5.67165 1.95458 5.51996C1.66494 4.59866 1.40641 3.8257 1.14906 3.27889C1.06203 3.09396 0.991362 2.97086 0.940974 2.89421C0.323988 2.64811 -0.0744453 2.00653 0.0118357 1.31364ZM557.104 3.2599C557.104 3.25965 557.104 3.2597 557.104 3.2599Z" fill="black"/>
</svg>
